<svg xmlns="http://www.w3.org/2000/svg" viewBox="0 0 110 110"><path fill="#a760b1" d="M79.286 47.857q0 .298-.015.596t-.044.594-.073.592-.102.587-.13.582-.16.574-.186.566-.215.556-.241.545-.268.532-.294.519-.319.503-.343.488-.367.47-.389.45q-.2.222-.41.432-.212.211-.432.411-.221.2-.452.39-.23.189-.47.366-.239.178-.487.344t-.503.318-.519.294-.532.268-.545.242-.556.214-.566.187-.575.159-.581.13q-.293.059-.587.103-.295.043-.592.072-.297.03-.594.044-.298.015-.596.015t-.596-.015-.594-.044-.592-.072-.587-.102-.582-.131-.574-.159-.566-.187-.556-.214-.545-.242-.532-.268-.519-.294-.503-.318-.488-.344-.47-.366-.45-.39-.432-.41-.411-.432-.39-.452-.366-.47-.344-.487-.318-.503-.294-.519-.268-.532-.242-.545-.214-.556-.187-.566-.159-.574q-.072-.29-.13-.582t-.103-.587-.072-.592-.044-.594-.015-.596.015-.596.044-.594.072-.592.102-.587q.059-.292.131-.581.072-.29.159-.575.086-.285.187-.566.1-.28.214-.556.114-.275.242-.545.127-.27.268-.532.14-.263.294-.519.153-.255.318-.503.166-.248.344-.487.177-.24.366-.47.19-.23.39-.452.2-.22.41-.431.211-.211.432-.411t.452-.39.47-.366.487-.343.503-.32.519-.293.532-.268.545-.241.556-.215.566-.187.574-.159q.29-.072.582-.13t.587-.102.592-.073.594-.044.596-.015.596.015.594.044.592.073q.294.043.587.102.292.058.581.13.29.073.575.16.285.086.566.186t.556.215.545.241.532.268.519.294.503.319.487.343q.24.177.47.367.23.189.452.389.22.2.431.41.211.212.411.432.2.221.39.452.189.23.366.47.178.239.343.487t.32.503q.152.256.293.519t.268.532.241.545.215.556.187.566q.086.285.159.575.072.289.13.581.059.293.102.587.044.295.073.592.03.297.044.594.015.298.015.596" transform="translate(-12.143 0)"/><path fill="#ce76db" d="M75 47.857q0 .193-.01.386-.009.192-.028.384t-.047.383-.066.38-.084.376-.103.372q-.056.184-.121.366t-.14.36-.155.352-.174.345-.19.335-.206.326-.222.316-.237.304-.252.292-.266.279-.28.266-.292.252-.304.237-.315.222-.326.206-.335.19-.345.174-.352.156-.36.139-.366.12q-.185.057-.372.104t-.376.084-.38.066-.383.047-.385.029q-.192.01-.385.01t-.386-.01-.384-.029-.383-.047-.38-.066-.376-.084-.372-.103q-.184-.056-.366-.121t-.36-.139-.352-.156-.345-.174-.335-.19-.326-.206-.316-.222-.304-.237-.292-.252-.279-.266-.266-.28-.252-.291-.237-.304-.222-.316-.206-.326-.19-.335-.174-.345-.156-.352-.139-.36-.12-.366q-.057-.185-.104-.372t-.084-.376-.066-.38-.047-.383-.029-.384q-.01-.193-.01-.386t.01-.385q.01-.193.029-.385t.047-.383q.028-.19.066-.38.037-.189.084-.376t.103-.372.121-.366.139-.36.156-.352.174-.345.19-.335.206-.326.222-.315.237-.304q.123-.15.252-.292.13-.143.266-.28.136-.136.28-.266.142-.13.291-.252.15-.122.304-.237.155-.115.316-.222.16-.107.326-.206.165-.1.335-.19.17-.091.345-.174t.352-.156.36-.139.366-.12.372-.104.376-.084.38-.066.383-.047.384-.029.386-.009.385.01.385.028.383.047.38.066.376.084.372.103.366.121.36.14.352.155.345.174.335.19.326.206.315.222.304.237.292.252.28.266.266.28q.13.142.252.292.122.149.237.304t.222.315.206.326.19.335.174.345.156.352.139.36.12.366q.057.185.104.372t.084.376.066.38.047.383.029.385.009.385" transform="translate(-12.143 0)"/><path fill="none" stroke="#000" stroke-linecap="round" stroke-linejoin="round" stroke-width="2.4" d="M29.86 75.256q-2.178 0-3.15 1.21-.972 1.212-.972 3.311 0 1.02.24 1.85.244.83.722 1.432.479.595 1.197.927.722.327 1.684.327.518 0 .889-.02.37-.019.65-.077v-4.82h3.12v6.86q-.562.22-1.803.47-1.235.249-3.056.249-1.563 0-2.832-.479-1.27-.478-2.168-1.396-.899-.923-1.392-2.261-.488-1.343-.488-3.062 0-1.743.537-3.08.542-1.344 1.48-2.271.942-.928 2.211-1.407 1.27-.483 2.71-.483.982 0 1.768.132.791.127 1.362.298t.938.351q.37.18.532.279l-.898 2.5q-.64-.342-1.47-.591-.83-.25-1.812-.25m13.42 3.579q-.401-.098-.943-.205-.537-.112-1.157-.112-.279 0-.67.048-.39.05-.59.108v8.042H36.94v-9.961q.801-.279 1.89-.528 1.089-.254 2.427-.254.244 0 .58.035.343.029.68.078.341.049.678.122.342.068.586.166zm6.12 5.8q.44 0 .84-.019.4-.02.64-.058v-2.261q-.181-.04-.543-.078-.356-.044-.659-.044-.42 0-.79.053-.367.05-.65.19-.279.138-.44.377-.156.24-.156.6 0 .699.469.972.469.269 1.289.269m-.24-8.72q1.319 0 2.198.303.884.297 1.411.859.532.557.752 1.358.22.8.22 1.782v6.2q-.64.138-1.782.328-1.138.19-2.76.19-1.02 0-1.85-.18t-1.43-.591-.923-1.07q-.318-.659-.318-1.62 0-.918.371-1.558t.992-1.02q.62-.382 1.42-.547.801-.171 1.66-.171.577 0 1.026.048.454.05.732.127v-.278q0-.762-.459-1.22-.459-.46-1.601-.46-.757 0-1.5.113-.741.107-1.279.307l-.38-2.397q.259-.083.65-.171.39-.093.849-.161t.967-.117q.512-.054 1.035-.054m14.02 5.62q0-1.377-.62-2.207t-1.841-.83q-.4 0-.742.03-.337.028-.557.068v5.38q.278.181.727.303.455.117.913.117 2.12 0 2.12-2.861m3.042-.078q0 1.22-.303 2.222-.298.996-.879 1.718-.581.718-1.44 1.118-.86.4-1.978.4-.62 0-1.162-.121-.542-.117-1.04-.337v3.96h-2.98V76.555q.4-.118.918-.225.523-.112 1.09-.19.57-.084 1.161-.132.591-.054 1.128-.054 1.304 0 2.32.39 1.02.391 1.718 1.104.703.708 1.075 1.729.37 1.02.37 2.28m1.796.078q0-1.401.43-2.451t1.128-1.748q.703-.698 1.611-1.06.913-.361 1.875-.361 2.237 0 3.535 1.372 1.304 1.367 1.304 4.028 0 .26-.02.572-.019.307-.043.547H71.08q.098.922.86 1.464.761.537 2.04.537.82 0 1.607-.146.79-.151 1.294-.371l.4 2.417q-.24.122-.64.244-.4.117-.893.205-.488.093-1.05.151-.557.059-1.118.059-1.421 0-2.47-.42t-1.744-1.147q-.688-.733-1.02-1.729-.328-1-.328-2.163m7.002-1.138q-.02-.38-.132-.742-.107-.361-.336-.64-.23-.278-.582-.459-.351-.18-.869-.18-.502 0-.864.17-.356.172-.596.45-.239.278-.37.65-.133.37-.191.751zm8.199 4.18q.82 0 1.157-.161.342-.161.342-.62 0-.361-.44-.63-.439-.269-1.337-.61-.699-.26-1.27-.538-.571-.283-.972-.673-.4-.391-.62-.928-.22-.542-.22-1.299 0-1.484 1.1-2.344 1.103-.86 3.022-.86.957 0 1.836.172.883.17 1.4.37l-.517 2.32q-.522-.18-1.133-.317-.605-.142-1.367-.142-1.401 0-1.401.777 0 .18.059.322.063.142.244.273.18.127.488.279.308.146.791.327.977.361 1.616.713.645.346 1.01.757.372.41.523.913.152.498.152 1.157 0 1.562-1.172 2.363-1.172.796-3.31.796-1.402 0-2.335-.24-.927-.239-1.284-.4l.498-2.417q.762.298 1.558.47.8.17 1.582.17"/><path fill="#fff" d="M29.86 75.256q-2.178 0-3.15 1.21-.972 1.212-.972 3.311 0 1.02.24 1.85.244.83.722 1.432.479.595 1.197.927.722.327 1.684.327.518 0 .889-.02.37-.019.65-.077v-4.82h3.12v6.86q-.562.22-1.803.47-1.235.249-3.056.249-1.563 0-2.832-.479-1.27-.478-2.168-1.396-.899-.923-1.392-2.261-.488-1.343-.488-3.062 0-1.743.537-3.08.542-1.344 1.48-2.271.942-.928 2.211-1.407 1.27-.483 2.71-.483.982 0 1.768.132.791.127 1.362.298t.938.351q.37.18.532.279l-.898 2.5q-.64-.342-1.47-.591-.83-.25-1.812-.25m13.42 3.579q-.401-.098-.943-.205-.537-.112-1.157-.112-.279 0-.67.048-.39.05-.59.108v8.042H36.94v-9.961q.801-.279 1.89-.528 1.089-.254 2.427-.254.244 0 .58.035.343.029.68.078.341.049.678.122.342.068.586.166zm6.12 5.8q.44 0 .84-.019.4-.02.64-.058v-2.261q-.181-.04-.543-.078-.356-.044-.659-.044-.42 0-.79.053-.367.05-.65.19-.279.138-.44.377-.156.24-.156.6 0 .699.469.972.469.269 1.289.269m-.24-8.72q1.319 0 2.198.303.884.297 1.411.859.532.557.752 1.358.22.8.22 1.782v6.2q-.64.138-1.782.328-1.138.19-2.76.19-1.02 0-1.85-.18t-1.43-.591-.923-1.07q-.318-.659-.318-1.62 0-.918.371-1.558t.992-1.02q.62-.382 1.42-.547.801-.171 1.66-.171.577 0 1.026.048.454.05.732.127v-.278q0-.762-.459-1.22-.459-.46-1.601-.46-.757 0-1.5.113-.741.107-1.279.307l-.38-2.397q.259-.083.65-.171.39-.093.849-.161t.967-.117q.512-.054 1.035-.054m14.02 5.62q0-1.377-.62-2.207t-1.841-.83q-.4 0-.742.03-.337.028-.557.068v5.38q.278.181.727.303.455.117.913.117 2.12 0 2.12-2.861m3.042-.078q0 1.22-.303 2.222-.298.996-.879 1.718-.581.718-1.44 1.118-.86.4-1.978.4-.62 0-1.162-.121-.542-.117-1.04-.337v3.96h-2.98V76.555q.4-.118.918-.225.523-.112 1.09-.19.57-.084 1.161-.132.591-.054 1.128-.054 1.304 0 2.32.39 1.02.391 1.718 1.104.703.708 1.075 1.729.37 1.02.37 2.28m1.796.078q0-1.401.43-2.451t1.128-1.748q.703-.698 1.611-1.06.913-.361 1.875-.361 2.237 0 3.535 1.372 1.304 1.367 1.304 4.028 0 .26-.02.572-.019.307-.043.547H71.08q.098.922.86 1.464.761.537 2.04.537.82 0 1.607-.146.79-.151 1.294-.371l.4 2.417q-.24.122-.64.244-.4.117-.893.205-.488.093-1.05.151-.557.059-1.118.059-1.421 0-2.47-.42t-1.744-1.147q-.688-.733-1.02-1.729-.328-1-.328-2.163m7.002-1.138q-.02-.38-.132-.742-.107-.361-.336-.64-.23-.278-.582-.459-.351-.18-.869-.18-.502 0-.864.17-.356.172-.596.45-.239.278-.37.65-.133.37-.191.751zm8.199 4.18q.82 0 1.157-.161.342-.161.342-.62 0-.361-.44-.63-.439-.269-1.337-.61-.699-.26-1.27-.538-.571-.283-.972-.673-.4-.391-.62-.928-.22-.542-.22-1.299 0-1.484 1.1-2.344 1.103-.86 3.022-.86.957 0 1.836.172.883.17 1.4.37l-.517 2.32q-.522-.18-1.133-.317-.605-.142-1.367-.142-1.401 0-1.401.777 0 .18.059.322.063.142.244.273.18.127.488.279.308.146.791.327.977.361 1.616.713.645.346 1.01.757.372.41.523.913.152.498.152 1.157 0 1.562-1.172 2.363-1.172.796-3.31.796-1.402 0-2.335-.24-.927-.239-1.284-.4l.498-2.417q.762.298 1.558.47.8.17 1.582.17"/></svg>