<svg xmlns="http://www.w3.org/2000/svg" viewBox="0 0 110 110"><path fill="#cf78a3" d="M81.429 47.857q0 .298-.015.596t-.044.594-.073.592-.102.587-.13.582-.16.574-.186.566-.215.556-.241.545-.268.532-.294.519-.319.503-.343.488-.367.47-.39.45q-.2.222-.41.432-.21.211-.432.411-.22.2-.451.39-.23.189-.47.366-.24.178-.487.344-.248.165-.504.318-.255.154-.518.294t-.533.268-.544.242-.557.214q-.28.1-.565.187-.286.087-.575.159t-.581.13-.588.103-.591.072-.594.044q-.298.015-.596.015t-.596-.015-.595-.044-.591-.072-.587-.102-.582-.131-.574-.159-.566-.187-.556-.214-.545-.242-.532-.268-.519-.294-.504-.318-.487-.344-.47-.366-.45-.39-.433-.41-.41-.432-.39-.452-.367-.47-.343-.487-.319-.503-.293-.519-.268-.532-.242-.545-.214-.556-.187-.566-.16-.574q-.072-.29-.13-.582t-.102-.587-.073-.592-.044-.594-.014-.596.014-.596q.015-.297.044-.594.03-.297.073-.592.044-.294.102-.587.058-.292.13-.581.073-.29.16-.575.086-.285.187-.566.1-.28.214-.556.114-.275.242-.545.127-.27.268-.532.14-.263.293-.519.154-.255.32-.503.165-.248.342-.487.178-.24.367-.47.19-.23.39-.452.2-.22.41-.431.211-.211.432-.411.22-.2.451-.39.23-.189.47-.366.24-.178.487-.343.248-.166.504-.32.256-.152.519-.293.262-.14.532-.268.27-.127.545-.241.275-.115.556-.215.28-.1.566-.187.285-.086.574-.159.29-.072.582-.13t.587-.102.591-.073q.297-.03.595-.044.298-.015.596-.015t.596.015q.297.015.594.044t.591.073q.295.043.588.102.292.058.581.13.29.073.575.16.285.086.565.186.281.1.557.215.275.114.544.241.27.128.533.268t.518.294.504.319.487.343q.24.177.47.367.23.189.451.389t.432.41q.21.212.41.432.201.221.39.452.19.23.367.47t.343.487.319.503.294.519.268.532q.127.27.241.545.114.276.215.556.1.281.187.566.086.285.159.575.072.289.13.581.058.293.102.587.044.295.073.592.03.297.044.594.015.298.015.596" transform="translate(-14.286 0)"/><path fill="#ff94c9" d="M77.143 47.857q0 .193-.01.386-.01.192-.028.384t-.047.383-.066.38-.085.376q-.046.187-.102.372-.056.184-.121.366t-.14.36-.156.352-.173.345-.19.335-.206.326-.222.316-.238.304-.252.292-.265.279-.28.266-.292.252-.304.237-.315.222-.326.206-.335.19-.345.174-.353.156-.36.139q-.18.065-.365.12-.185.057-.372.104t-.376.084-.38.066-.383.047-.385.029q-.192.01-.385.01t-.386-.01-.384-.029-.383-.047-.38-.066-.376-.084q-.188-.047-.372-.103-.185-.056-.366-.121-.182-.065-.36-.139t-.353-.156-.344-.174-.336-.19-.325-.206-.316-.222-.304-.237-.292-.252-.28-.266-.265-.28-.252-.291-.237-.304-.222-.316-.207-.326-.19-.335-.173-.345-.156-.352-.14-.36q-.064-.182-.12-.366-.056-.185-.103-.372t-.084-.376-.066-.38-.048-.383-.028-.384-.01-.386.01-.385.028-.385q.02-.192.048-.383.028-.19.066-.38.037-.189.084-.376t.103-.372.12-.366.14-.36.156-.352q.082-.175.173-.345t.19-.335q.1-.166.207-.326t.222-.315.237-.304.252-.292.266-.28q.136-.136.28-.266.142-.13.291-.252.15-.122.304-.237.155-.115.316-.222.16-.107.325-.206.166-.1.336-.19.17-.091.344-.174.175-.082.353-.156t.36-.139q.181-.065.366-.12.184-.057.372-.104.187-.046.376-.084t.38-.066.383-.047.384-.029.386-.009.385.01q.193.009.385.028t.383.047.38.066.376.084.372.103.366.121.36.14q.178.073.352.155.174.083.345.174t.335.19.326.206.315.222.304.237.292.252q.143.13.28.266.136.137.265.28.13.142.252.292.123.149.238.304t.222.315.206.326q.1.165.19.335.091.17.173.345.083.174.157.352.074.179.139.36.065.182.12.366.057.185.103.372.047.187.085.376.037.19.066.38.028.191.047.383t.028.385.01.385" transform="translate(-14.286 0)"/><path fill="none" stroke="#000" stroke-linecap="round" stroke-linejoin="round" stroke-width="2.4" d="M29.352 84.177q.22.02.507.029.289.01.689.01 2.344 0 3.472-1.177 1.128-1.182 1.128-3.262 0-2.182-1.08-3.3-1.079-1.124-3.417-1.124-.323 0-.665.015-.336.01-.634.049zm9.018-4.4q0 1.797-.561 3.14-.557 1.338-1.587 2.222-1.03.879-2.515 1.318-1.48.44-3.315.44-.84 0-1.963-.074-1.118-.068-2.197-.288v-13.5q1.079-.201 2.246-.27 1.172-.068 2.011-.068 1.783 0 3.233.4t2.49 1.26 1.597 2.203q.561 1.337.561 3.217m6.42 4.859q.44 0 .84-.02t.64-.058v-2.261q-.181-.04-.543-.078-.356-.044-.659-.044-.42 0-.79.053-.367.05-.65.19-.279.138-.44.377-.156.24-.156.6 0 .699.469.972.469.269 1.289.269m-.24-8.721q1.319 0 2.198.303.884.297 1.411.859.532.557.752 1.358.22.8.22 1.782v6.2q-.64.138-1.782.328-1.138.19-2.76.19-1.02 0-1.85-.18t-1.43-.591-.923-1.07q-.318-.659-.318-1.62 0-.918.371-1.558t.991-1.02q.62-.382 1.421-.547.801-.171 1.66-.171.577 0 1.026.048.454.05.732.127v-.278q0-.762-.459-1.22-.459-.46-1.601-.46-.757 0-1.5.113-.741.107-1.279.307l-.38-2.397q.258-.083.65-.171.39-.093.849-.161t.967-.117q.512-.054 1.035-.054m7.281 10.8V71.678l2.979-.479v5.04q.298-.103.766-.191.474-.093.913-.093 1.28 0 2.13.352.85.351 1.357.99.513.64.722 1.52.21.878.21 1.957v5.943H57.93v-5.581q0-1.44-.371-2.037-.371-.6-1.367-.6-.4 0-.752.068-.352.069-.63.152v7.998zm15.98.2q-1.3-.019-2.11-.277-.81-.264-1.284-.733-.469-.469-.64-1.137-.166-.674-.166-1.514V71.677l2.979-.479v11.46q0 .396.058.718.064.322.23.542.17.22.488.361.323.137.864.176zm5.099-.2H69.93V76.199h2.979zm.278-13.559q0 .82-.532 1.29-.527.468-1.245.468-.723 0-1.255-.469-.527-.469-.527-1.289t.527-1.289q.532-.474 1.255-.474.718 0 1.245.474.532.469.532 1.29m6.542 11.48q.44 0 .84-.02t.64-.058v-2.261q-.181-.04-.543-.078-.356-.044-.659-.044-.42 0-.79.053-.367.05-.65.19-.279.138-.44.377-.156.24-.156.6 0 .699.469.972.469.269 1.289.269m-.24-8.721q1.319 0 2.198.303.884.297 1.411.859.532.557.752 1.358.22.8.22 1.782v6.2q-.64.138-1.782.328-1.138.19-2.76.19-1.02 0-1.85-.18t-1.43-.591-.923-1.07q-.318-.659-.318-1.62 0-.918.371-1.558t.991-1.02q.62-.382 1.421-.547.801-.171 1.66-.171.577 0 1.026.048.454.05.732.127v-.278q0-.762-.459-1.22-.459-.46-1.601-.46-.757 0-1.5.113-.741.107-1.279.307l-.38-2.397q.258-.083.649-.171.39-.093.85-.161t.966-.117q.513-.054 1.036-.054"/><path fill="#fff" d="M29.352 84.177q.22.02.507.029.289.01.689.01 2.344 0 3.472-1.177 1.128-1.182 1.128-3.262 0-2.182-1.08-3.3-1.079-1.124-3.417-1.124-.323 0-.665.015-.336.01-.634.049zm9.018-4.4q0 1.797-.561 3.14-.557 1.338-1.587 2.222-1.03.879-2.515 1.318-1.48.44-3.315.44-.84 0-1.963-.074-1.118-.068-2.197-.288v-13.5q1.079-.201 2.246-.27 1.172-.068 2.011-.068 1.783 0 3.233.4t2.49 1.26 1.597 2.203q.561 1.337.561 3.217m6.42 4.859q.44 0 .84-.02t.64-.058v-2.261q-.181-.04-.543-.078-.356-.044-.659-.044-.42 0-.79.053-.367.05-.65.19-.279.138-.44.377-.156.24-.156.6 0 .699.469.972.469.269 1.289.269m-.24-8.721q1.319 0 2.198.303.884.297 1.411.859.532.557.752 1.358.22.8.22 1.782v6.2q-.64.138-1.782.328-1.138.19-2.76.19-1.02 0-1.85-.18t-1.43-.591-.923-1.07q-.318-.659-.318-1.62 0-.918.371-1.558t.991-1.02q.62-.382 1.421-.547.801-.171 1.66-.171.577 0 1.026.048.454.05.732.127v-.278q0-.762-.459-1.22-.459-.46-1.601-.46-.757 0-1.5.113-.741.107-1.279.307l-.38-2.397q.258-.083.65-.171.39-.093.849-.161t.967-.117q.512-.054 1.035-.054m7.281 10.8V71.678l2.979-.479v5.04q.298-.103.766-.191.474-.093.913-.093 1.28 0 2.13.352.85.351 1.357.99.513.64.722 1.52.21.878.21 1.957v5.943H57.93v-5.581q0-1.44-.371-2.037-.371-.6-1.367-.6-.4 0-.752.068-.352.069-.63.152v7.998zm15.98.2q-1.3-.019-2.11-.277-.81-.264-1.284-.733-.469-.469-.64-1.137-.166-.674-.166-1.514V71.677l2.979-.479v11.46q0 .396.058.718.064.322.23.542.17.22.488.361.323.137.864.176zm5.099-.2H69.93V76.199h2.979zm.278-13.559q0 .82-.532 1.29-.527.468-1.245.468-.723 0-1.255-.469-.527-.469-.527-1.289t.527-1.289q.532-.474 1.255-.474.718 0 1.245.474.532.469.532 1.29m6.542 11.48q.44 0 .84-.02t.64-.058v-2.261q-.181-.04-.543-.078-.356-.044-.659-.044-.42 0-.79.053-.367.05-.65.19-.279.138-.44.377-.156.24-.156.6 0 .699.469.972.469.269 1.289.269m-.24-8.721q1.319 0 2.198.303.884.297 1.411.859.532.557.752 1.358.22.8.22 1.782v6.2q-.64.138-1.782.328-1.138.19-2.76.19-1.02 0-1.85-.18t-1.43-.591-.923-1.07q-.318-.659-.318-1.62 0-.918.371-1.558t.991-1.02q.62-.382 1.421-.547.801-.171 1.66-.171.577 0 1.026.048.454.05.732.127v-.278q0-.762-.459-1.22-.459-.46-1.601-.46-.757 0-1.5.113-.741.107-1.279.307l-.38-2.397q.258-.083.649-.171.39-.093.85-.161t.966-.117q.513-.054 1.036-.054"/></svg>