<svg xmlns="http://www.w3.org/2000/svg" viewBox="0 0 110 110"><path fill="#cfc295" d="M89.286 47.857q0 .491-.024.981t-.073.98-.12.974-.168.967-.215.958-.261.946-.308.932-.354.916-.398.897-.44.877q-.232.433-.485.854-.252.421-.525.83-.273.408-.565.802-.293.394-.604.774-.312.38-.641.743-.33.364-.677.711t-.711.677-.743.641-.774.604-.803.566-.83.525q-.42.252-.853.484-.433.23-.877.44t-.898.399q-.453.188-.916.353-.462.165-.932.308-.47.142-.946.262-.476.119-.958.215-.481.096-.967.168-.485.072-.974.12t-.979.072-.981.024-.982-.024-.979-.072-.974-.12-.967-.168q-.482-.096-.958-.215-.476-.12-.946-.262t-.932-.308q-.462-.165-.916-.353t-.897-.398-.877-.441-.854-.484-.83-.525-.802-.566-.774-.604-.743-.64-.711-.678-.677-.71q-.33-.365-.641-.744-.312-.38-.604-.774-.293-.394-.566-.803-.272-.408-.525-.829-.252-.421-.484-.854t-.441-.877-.398-.897-.353-.916q-.166-.462-.308-.932-.143-.47-.262-.946-.12-.477-.215-.958-.096-.482-.168-.967-.072-.486-.12-.975-.048-.488-.072-.979-.024-.49-.024-.98 0-.492.024-.982t.072-.98q.048-.488.12-.974.072-.485.168-.967.096-.481.215-.957.12-.477.262-.947t.308-.932.353-.916.398-.897.441-.877.484-.854.525-.83.566-.802.604-.774q.311-.38.64-.743.33-.364.678-.711.347-.347.71-.677.364-.33.744-.641.38-.312.774-.604t.802-.565.83-.525q.42-.253.854-.484.433-.232.877-.442.443-.21.897-.397t.916-.354.932-.308.946-.261.958-.216q.481-.095.967-.167t.974-.12q.489-.049.98-.073.49-.024.98-.024.492 0 .982.024t.979.072q.489.049.974.12.486.073.967.168.482.096.958.216.477.119.946.261.47.143.932.308.463.166.916.354.454.187.898.397t.877.442.854.484q.42.252.83.525.407.273.802.565.394.292.774.604.38.311.743.641.364.33.71.677.348.347.678.71.33.365.64.744.312.38.605.774.292.394.565.803.273.408.525.83.253.42.484.853.232.433.441.877.21.444.398.897.188.454.354.916.165.463.308.932.142.47.261.947.12.476.215.957.096.482.168.967.072.486.12.975.049.488.073.979.024.49.024.981" transform="translate(-14.286 0)"/><path fill="#fff0b8" d="M85.286 47.857q0 .393-.02.785-.019.392-.057.783t-.096.78-.135.774-.172.766-.21.757q-.113.376-.246.745-.132.37-.282.733t-.318.718-.354.701-.387.684-.42.663-.452.642-.483.62-.513.594-.542.569-.568.541-.595.513q-.304.25-.62.483-.315.234-.641.453-.327.218-.664.42t-.683.387-.701.353-.718.318-.733.283-.746.246-.757.21-.766.172-.774.134-.779.096q-.39.039-.783.058t-.785.02q-.393 0-.785-.02-.393-.02-.784-.058-.39-.038-.779-.096t-.774-.134-.766-.172-.757-.21-.746-.246-.732-.283-.718-.318-.702-.353-.683-.387-.663-.42-.642-.453-.62-.483-.594-.513-.569-.541-.542-.569-.512-.595-.484-.619-.452-.642-.42-.663-.387-.684-.353-.701-.318-.718-.283-.733-.246-.745-.21-.757-.172-.766-.134-.774-.096-.78-.058-.783-.02-.785.02-.785.058-.783.096-.78.134-.773.172-.767q.096-.38.21-.756t.246-.746.283-.733.318-.718.353-.701.387-.684q.202-.336.42-.663t.452-.642.484-.62q.249-.303.512-.594.264-.29.542-.569.278-.277.569-.541t.594-.513q.304-.25.62-.483.315-.234.642-.452.326-.219.663-.42.337-.202.683-.388.347-.185.702-.353t.718-.318.732-.283.746-.246.757-.21.766-.171.774-.135q.389-.057.78-.096.39-.038.783-.058.392-.019.785-.019.392 0 .785.02.392.019.783.057.39.039.78.096.388.058.773.135.385.076.766.172t.757.21.746.245.733.283.718.318.701.353q.346.186.683.387.337.202.664.42.326.219.642.453.315.234.619.483.304.25.595.513.29.264.568.541.278.278.542.57.264.29.513.594.249.303.483.619.234.315.452.642t.42.663.387.684.354.701.318.718.282.733.247.746q.114.375.21.756t.171.767.135.773.096.78.057.783q.02.392.02.785" transform="translate(-14.286 0)"/><path fill="none" stroke="#000" stroke-linecap="round" stroke-linejoin="round" stroke-width="2.4" d="M38.662 86.716V72.853h9.36v2.623h-6.24v2.72h5.537v2.558h-5.537v3.34h6.699v2.622zm14.458-5.6q0 2.5 2.022 2.5.459 0 .86-.118.4-.122.678-.283v-4.761q-.22-.04-.523-.068-.297-.03-.698-.03-1.181 0-1.762.782-.577.776-.577 1.977m6.539 4.281q0 2.579-1.31 3.829-1.308 1.25-4.047 1.25-.962 0-1.924-.171-.957-.171-1.777-.45l.517-2.5q.704.279 1.47.44.772.16 1.753.16 1.28 0 1.807-.56.532-.557.532-1.441v-.376q-.478.22-.991.332-.508.108-1.109.108-2.182 0-3.344-1.29-1.158-1.293-1.158-3.613 0-1.157.362-2.11.361-.951 1.05-1.63.688-.679 1.689-1.05t2.26-.371q.543 0 1.11.054.57.049 1.127.132.562.078 1.07.19.512.107.913.225zM65 81.115q0 2.5 2.022 2.5.459 0 .86-.117.4-.122.678-.283v-4.761q-.22-.04-.523-.068-.297-.03-.698-.03-1.181 0-1.762.782-.577.776-.577 1.977m6.538 4.282q0 2.579-1.308 3.829t-4.048 1.25q-.962 0-1.924-.171-.957-.171-1.777-.45l.518-2.5q.703.279 1.47.44.77.16 1.752.16 1.28 0 1.807-.56.532-.557.532-1.441v-.376q-.478.22-.991.332-.508.108-1.109.108-2.182 0-3.344-1.29-1.158-1.293-1.158-3.613 0-1.157.362-2.11.361-.951 1.05-1.63.688-.679 1.689-1.05t2.26-.371q.543 0 1.11.054.57.049 1.127.132.562.078 1.07.19.512.107.912.225z"/><path fill="#fff" d="M38.662 86.716V72.853h9.36v2.623h-6.24v2.72h5.537v2.558h-5.537v3.34h6.699v2.622zm14.458-5.6q0 2.5 2.022 2.5.459 0 .86-.118.4-.122.678-.283v-4.761q-.22-.04-.523-.068-.297-.03-.698-.03-1.181 0-1.762.782-.577.776-.577 1.977m6.539 4.281q0 2.579-1.31 3.829-1.308 1.25-4.047 1.25-.962 0-1.924-.171-.957-.171-1.777-.45l.517-2.5q.704.279 1.47.44.772.16 1.753.16 1.28 0 1.807-.56.532-.557.532-1.441v-.376q-.478.22-.991.332-.508.108-1.109.108-2.182 0-3.344-1.29-1.158-1.293-1.158-3.613 0-1.157.362-2.11.361-.951 1.05-1.63.688-.679 1.689-1.05t2.26-.371q.543 0 1.11.054.57.049 1.127.132.562.078 1.07.19.512.107.913.225zM65 81.115q0 2.5 2.022 2.5.459 0 .86-.117.4-.122.678-.283v-4.761q-.22-.04-.523-.068-.297-.03-.698-.03-1.181 0-1.762.782-.577.776-.577 1.977m6.538 4.282q0 2.579-1.308 3.829t-4.048 1.25q-.962 0-1.924-.171-.957-.171-1.777-.45l.518-2.5q.703.279 1.47.44.77.16 1.752.16 1.28 0 1.807-.56.532-.557.532-1.441v-.376q-.478.22-.991.332-.508.108-1.109.108-2.182 0-3.344-1.29-1.158-1.293-1.158-3.613 0-1.157.362-2.11.361-.951 1.05-1.63.688-.679 1.689-1.05t2.26-.371q.543 0 1.11.054.57.049 1.127.132.562.078 1.07.19.512.107.912.225z"/></svg>