<svg xmlns="http://www.w3.org/2000/svg" viewBox="0 0 110 110"><path fill="#35b8c6" d="M79.286 47.857q0 .298-.015.596t-.044.594-.073.592-.102.587-.13.582-.16.574-.186.566-.215.556-.241.545-.268.532-.294.519-.319.503-.343.488-.367.47-.389.45q-.2.222-.41.432-.212.211-.432.411-.221.2-.452.39-.23.189-.47.366-.239.178-.487.344t-.503.318-.519.294-.532.268-.545.242-.556.214-.566.187-.575.159-.581.13q-.293.059-.587.103-.295.043-.592.072-.297.03-.594.044-.298.015-.596.015t-.596-.015-.594-.044-.592-.072-.587-.102-.582-.131-.574-.159-.566-.187-.556-.214-.545-.242-.532-.268-.519-.294-.503-.318-.488-.344-.47-.366-.45-.39-.432-.41-.411-.432-.39-.452-.366-.47-.344-.487-.318-.503-.294-.519-.268-.532-.242-.545-.214-.556-.187-.566-.159-.574q-.072-.29-.13-.582t-.103-.587-.072-.592-.044-.594-.015-.596.015-.596.044-.594.072-.592.102-.587q.059-.292.131-.581.072-.29.159-.575.086-.285.187-.566.1-.28.214-.556.114-.275.242-.545.127-.27.268-.532.14-.263.294-.519.153-.255.318-.503.166-.248.344-.487.177-.24.366-.47.19-.23.39-.452.2-.22.41-.431.211-.211.432-.411t.452-.39.47-.366.487-.343.503-.32.519-.293.532-.268.545-.241.556-.215.566-.187.574-.159q.29-.072.582-.13t.587-.102.592-.073.594-.044.596-.015.596.015.594.044.592.073q.294.043.587.102.292.058.581.13.29.073.575.16.285.086.566.186t.556.215.545.241.532.268.519.294.503.319.487.343q.24.177.47.367.23.189.452.389.22.2.431.41.211.212.411.432.2.221.39.452.189.23.366.47.178.239.343.487t.32.503q.152.256.293.519t.268.532.241.545.215.556.187.566q.086.285.159.575.072.289.13.581.059.293.102.587.044.295.073.592.03.297.044.594.015.298.015.596" transform="translate(-12.143 0)"/><path fill="#42e3f5" d="M75 47.857q0 .193-.01.386-.009.192-.028.384t-.047.383-.066.38-.084.376-.103.372q-.056.184-.121.366t-.14.36-.155.352-.174.345-.19.335-.206.326-.222.316-.237.304-.252.292-.266.279-.28.266-.292.252-.304.237-.315.222-.326.206-.335.19-.345.174-.352.156-.36.139-.366.12q-.185.057-.372.104t-.376.084-.38.066-.383.047-.385.029q-.192.01-.385.01t-.386-.01-.384-.029-.383-.047-.38-.066-.376-.084-.372-.103q-.184-.056-.366-.121t-.36-.139-.352-.156-.345-.174-.335-.19-.326-.206-.316-.222-.304-.237-.292-.252-.279-.266-.266-.28-.252-.291-.237-.304-.222-.316-.206-.326-.19-.335-.174-.345-.156-.352-.139-.36-.12-.366q-.057-.185-.104-.372t-.084-.376-.066-.38-.047-.383-.029-.384q-.01-.193-.01-.386t.01-.385q.01-.193.029-.385t.047-.383q.028-.19.066-.38.037-.189.084-.376t.103-.372.121-.366.139-.36.156-.352.174-.345.19-.335.206-.326.222-.315.237-.304q.123-.15.252-.292.13-.143.266-.28.136-.136.28-.266.142-.13.291-.252.15-.122.304-.237.155-.115.316-.222.16-.107.326-.206.165-.1.335-.19.17-.091.345-.174t.352-.156.36-.139.366-.12.372-.104.376-.084.38-.066.383-.047.384-.029.386-.009.385.01.385.028.383.047.38.066.376.084.372.103.366.121.36.14.352.155.345.174.335.19.326.206.315.222.304.237.292.252.28.266.266.28q.13.142.252.292.122.149.237.304t.222.315.206.326.19.335.174.345.156.352.139.36.12.366q.057.185.104.372t.084.376.066.38.047.383.029.385.009.385" transform="translate(-12.143 0)"/><path fill="none" stroke="#000" stroke-linecap="round" stroke-linejoin="round" stroke-width="1.543" d="M23.35 84.178q-.734 0-1.459-.047-.725-.044-1.51-.21v-8.642q.616-.113 1.347-.17.735-.059 1.366-.059.847 0 1.56.123.715.122 1.23.417t.804.779q.288.48.288 1.186 0 1.067-1.03 1.686.851.32 1.16.875.307.553.307 1.247 0 1.4-1.024 2.109-1.02.706-3.038.706m-1.016-3.999v2.301q.22.025.477.04t.565.014q.9 0 1.453-.258.553-.257.553-.951 0-.618-.465-.882-.461-.264-1.321-.264zm0-1.528h.98q.922 0 1.32-.239.4-.239.4-.766 0-.54-.412-.756-.411-.22-1.208-.22-.258 0-.553.006t-.527.032zm9.25 5.54q-.836-.013-1.357-.18-.52-.169-.825-.47-.302-.301-.411-.731-.107-.433-.107-.973v-7.443l1.915-.307v7.367q0 .254.037.461.041.207.148.349.11.14.314.232.207.088.555.113zm7.131-.361q-.49.141-1.262.264-.769.122-1.62.122-.86 0-1.434-.23-.571-.231-.907-.649-.333-.42-.474-.998t-.141-1.271V77.3h1.917v3.534q0 .926.242 1.338.245.41.914.41.207 0 .436-.018.232-.019.414-.047V77.3h1.915zm1.47-3.098q0-.901.275-1.576.277-.675.726-1.124.452-.449 1.035-.68.587-.233 1.206-.233 1.437 0 2.272.882.839.879.839 2.59 0 .166-.013.367-.013.198-.028.351h-4.345q.063.594.553.942.49.345 1.312.345.527 0 1.033-.094.508-.097.831-.238l.258 1.553q-.154.079-.411.157-.258.076-.575.132-.314.06-.675.097-.358.038-.718.038-.914 0-1.589-.27t-1.12-.738q-.443-.47-.657-1.11-.21-.644-.21-1.391m4.5-.732q-.012-.245-.084-.477-.07-.232-.217-.411t-.373-.295-.56-.116q-.322 0-.555.11-.229.11-.383.288-.154.18-.238.418-.085.238-.123.483zm7.655.628q0-1.849-1.362-1.849-.295 0-.587.079-.289.075-.468.191v3.484q.141.026.358.044.22.02.477.02.785 0 1.183-.54.4-.54.4-1.429m1.956.053q0 .81-.239 1.466t-.69 1.121q-.45.461-1.105.713-.653.248-1.491.248-.346 0-.725-.032-.38-.031-.748-.085-.364-.05-.7-.119-.332-.072-.59-.15v-9.449l1.915-.307v3.368q.32-.142.669-.22.348-.079.747-.079.719 0 1.271.252.553.25.926.715.374.462.565 1.111.195.65.195 1.448m1.147.05q0-.9.276-1.575t.725-1.124q.452-.449 1.036-.68.587-.233 1.205-.233 1.438 0 2.273.882.838.879.838 2.59 0 .166-.013.367-.012.198-.028.351h-4.344q.063.594.552.942.49.345 1.312.345.528 0 1.033-.094.509-.097.832-.238l.257 1.553q-.154.079-.41.157-.258.076-.575.132-.314.06-.675.097-.358.038-.719.038-.913 0-1.588-.27t-1.12-.738q-.444-.47-.657-1.11-.21-.644-.21-1.391m4.501-.73q-.013-.246-.085-.478-.069-.232-.216-.411-.148-.179-.374-.295t-.559-.116q-.323 0-.555.11-.23.11-.383.288-.154.18-.239.418t-.122.483zm7.397-1.005q-.257-.063-.606-.132-.345-.072-.743-.072-.18 0-.43.031-.252.032-.38.07v5.17h-1.915v-6.404q.515-.18 1.215-.34.7-.163 1.56-.163.157 0 .373.022.22.02.436.05.22.032.437.08.22.043.377.106zm5.42 0q-.257-.063-.605-.132-.346-.072-.744-.072-.18 0-.43.031-.252.032-.38.07v5.17h-1.915v-6.404q.515-.18 1.215-.34.7-.163 1.56-.163.157 0 .373.022.22.02.437.05.22.032.436.08.22.043.377.106zm3.26 5.066h-1.914v-6.761h1.915zm.18-8.717q0 .528-.342.829-.34.301-.8.301-.465 0-.808-.301-.339-.301-.339-.829 0-.527.34-.828.342-.305.806-.305.462 0 .8.305.343.3.343.828m1.295 5.387q0-.901.276-1.576t.725-1.124q.452-.449 1.036-.68.587-.233 1.205-.233 1.438 0 2.273.882.838.879.838 2.59 0 .166-.013.367-.012.198-.028.351h-4.344q.063.594.552.942.49.345 1.312.345.528 0 1.033-.094.508-.097.832-.238l.257 1.553q-.154.079-.411.157-.257.076-.574.132-.314.06-.675.097-.358.038-.72.038-.913 0-1.587-.27-.675-.27-1.121-.738-.443-.47-.656-1.11-.21-.644-.21-1.391m4.5-.732q-.012-.245-.084-.477-.069-.232-.217-.411-.147-.179-.373-.295t-.559-.116q-.323 0-.555.11-.23.11-.383.288-.154.18-.239.418t-.122.483zm5.264 2.687q.527 0 .743-.103.22-.104.22-.399 0-.232-.282-.405-.283-.172-.86-.392-.45-.167-.816-.346-.368-.182-.625-.433-.257-.25-.399-.596-.141-.349-.141-.835 0-.954.706-1.507.71-.552 1.943-.552.616 0 1.18.11.569.11.901.238l-.332 1.491q-.336-.116-.729-.204-.389-.09-.879-.09-.9 0-.9.498 0 .116.037.207.041.091.157.176.116.082.314.18.198.093.509.21.627.232 1.039.458.414.223.65.486.238.264.335.587.098.32.098.744 0 1.005-.754 1.52-.753.511-2.128.511-.9 0-1.5-.154-.597-.154-.826-.257l.32-1.554q.49.192 1.002.301.514.11 1.017.11"/><path fill="#fff" d="M23.35 84.178q-.734 0-1.459-.047-.725-.044-1.51-.21v-8.642q.616-.113 1.347-.17.735-.059 1.366-.059.847 0 1.56.123.715.122 1.23.417t.804.779q.288.48.288 1.186 0 1.067-1.03 1.686.851.32 1.16.875.307.553.307 1.247 0 1.4-1.024 2.109-1.02.706-3.038.706m-1.016-3.999v2.301q.22.025.477.04t.565.014q.9 0 1.453-.258.553-.257.553-.951 0-.618-.465-.882-.461-.264-1.321-.264zm0-1.528h.98q.922 0 1.32-.239.4-.239.4-.766 0-.54-.412-.756-.411-.22-1.208-.22-.258 0-.553.006t-.527.032zm9.25 5.54q-.836-.013-1.357-.18-.52-.169-.825-.47-.302-.301-.411-.731-.107-.433-.107-.973v-7.443l1.915-.307v7.367q0 .254.037.461.041.207.148.349.11.14.314.232.207.088.555.113zm7.131-.361q-.49.141-1.262.264-.769.122-1.62.122-.86 0-1.434-.23-.571-.231-.907-.649-.333-.42-.474-.998t-.141-1.271V77.3h1.917v3.534q0 .926.242 1.338.245.41.914.41.207 0 .436-.018.232-.019.414-.047V77.3h1.915zm1.47-3.098q0-.901.275-1.576.277-.675.726-1.124.452-.449 1.035-.68.587-.233 1.206-.233 1.437 0 2.272.882.839.879.839 2.59 0 .166-.013.367-.013.198-.028.351h-4.345q.063.594.553.942.49.345 1.312.345.527 0 1.033-.094.508-.097.831-.238l.258 1.553q-.154.079-.411.157-.258.076-.575.132-.314.06-.675.097-.358.038-.718.038-.914 0-1.589-.27t-1.12-.738q-.443-.47-.657-1.11-.21-.644-.21-1.391m4.5-.732q-.012-.245-.084-.477-.07-.232-.217-.411t-.373-.295-.56-.116q-.322 0-.555.11-.229.11-.383.288-.154.18-.238.418-.085.238-.123.483zm7.655.628q0-1.849-1.362-1.849-.295 0-.587.079-.289.075-.468.191v3.484q.141.026.358.044.22.02.477.02.785 0 1.183-.54.4-.54.4-1.429m1.956.053q0 .81-.239 1.466t-.69 1.121q-.45.461-1.105.713-.653.248-1.491.248-.346 0-.725-.032-.38-.031-.748-.085-.364-.05-.7-.119-.332-.072-.59-.15v-9.449l1.915-.307v3.368q.32-.142.669-.22.348-.079.747-.079.719 0 1.271.252.553.25.926.715.374.462.565 1.111.195.65.195 1.448m1.147.05q0-.9.276-1.575t.725-1.124q.452-.449 1.036-.68.587-.233 1.205-.233 1.438 0 2.273.882.838.879.838 2.59 0 .166-.013.367-.012.198-.028.351h-4.344q.063.594.552.942.49.345 1.312.345.528 0 1.033-.094.509-.097.832-.238l.257 1.553q-.154.079-.41.157-.258.076-.575.132-.314.06-.675.097-.358.038-.719.038-.913 0-1.588-.27t-1.12-.738q-.444-.47-.657-1.11-.21-.644-.21-1.391m4.501-.73q-.013-.246-.085-.478-.069-.232-.216-.411-.148-.179-.374-.295t-.559-.116q-.323 0-.555.11-.23.11-.383.288-.154.18-.239.418t-.122.483zm7.397-1.005q-.257-.063-.606-.132-.345-.072-.743-.072-.18 0-.43.031-.252.032-.38.07v5.17h-1.915v-6.404q.515-.18 1.215-.34.7-.163 1.56-.163.157 0 .373.022.22.02.436.05.22.032.437.08.22.043.377.106zm5.42 0q-.257-.063-.605-.132-.346-.072-.744-.072-.18 0-.43.031-.252.032-.38.07v5.17h-1.915v-6.404q.515-.18 1.215-.34.7-.163 1.56-.163.157 0 .373.022.22.02.437.05.22.032.436.08.22.043.377.106zm3.26 5.066h-1.914v-6.761h1.915zm.18-8.717q0 .528-.342.829-.34.301-.8.301-.465 0-.808-.301-.339-.301-.339-.829 0-.527.34-.828.342-.305.806-.305.462 0 .8.305.343.3.343.828m1.295 5.387q0-.901.276-1.576t.725-1.124q.452-.449 1.036-.68.587-.233 1.205-.233 1.438 0 2.273.882.838.879.838 2.59 0 .166-.013.367-.012.198-.028.351h-4.344q.063.594.552.942.49.345 1.312.345.528 0 1.033-.094.508-.097.832-.238l.257 1.553q-.154.079-.411.157-.257.076-.574.132-.314.06-.675.097-.358.038-.72.038-.913 0-1.587-.27-.675-.27-1.121-.738-.443-.47-.656-1.11-.21-.644-.21-1.391m4.5-.732q-.012-.245-.084-.477-.069-.232-.217-.411-.147-.179-.373-.295t-.559-.116q-.323 0-.555.11-.23.11-.383.288-.154.18-.239.418t-.122.483zm5.264 2.687q.527 0 .743-.103.22-.104.22-.399 0-.232-.282-.405-.283-.172-.86-.392-.45-.167-.816-.346-.368-.182-.625-.433-.257-.25-.399-.596-.141-.349-.141-.835 0-.954.706-1.507.71-.552 1.943-.552.616 0 1.18.11.569.11.901.238l-.332 1.491q-.336-.116-.729-.204-.389-.09-.879-.09-.9 0-.9.498 0 .116.037.207.041.091.157.176.116.082.314.18.198.093.509.21.627.232 1.039.458.414.223.65.486.238.264.335.587.098.32.098.744 0 1.005-.754 1.52-.753.511-2.128.511-.9 0-1.5-.154-.597-.154-.826-.257l.32-1.554q.49.192 1.002.301.514.11 1.017.11"/></svg>