<?xml version="1.0" encoding="UTF-8" standalone="no"?>
<svg
   viewBox="0 0 110 110"
   version="1.1"
   id="svg4"
   sodipodi:docname="broken_egg.svg"
   inkscape:version="1.4.3 (0d15f75, 2025-12-25)"
   xmlns:inkscape="http://www.inkscape.org/namespaces/inkscape"
   xmlns:sodipodi="http://sodipodi.sourceforge.net/DTD/sodipodi-0.dtd"
   xmlns="http://www.w3.org/2000/svg"
   xmlns:svg="http://www.w3.org/2000/svg">
  <defs
     id="defs4" />
  <sodipodi:namedview
     id="namedview4"
     pagecolor="#505050"
     bordercolor="#ffffff"
     borderopacity="1"
     inkscape:showpageshadow="0"
     inkscape:pageopacity="0"
     inkscape:pagecheckerboard="1"
     inkscape:deskcolor="#505050"
     inkscape:zoom="10.118055"
     inkscape:cx="38.149625"
     inkscape:cy="49.367196"
     inkscape:window-width="1920"
     inkscape:window-height="1001"
     inkscape:window-x="-9"
     inkscape:window-y="-9"
     inkscape:window-maximized="1"
     inkscape:current-layer="svg4" />
  <path
     fill="#fff0b8"
     d="M 59.539179,49.98217 C 77.562988,39.944015 70.180667,53.722 70.106,54.056 c -0.07533,0.334667 -0.156333,0.666667 -0.243,0.996 -0.08667,0.329333 -0.179667,0.655333 -0.279,0.978 -0.09933,0.322667 -0.204,0.642 -0.314,0.958 -0.11,0.316 -0.226,0.628333 -0.348,0.937 -0.122,0.308667 -0.249333,0.612667 -0.382,0.912 -0.133333,0.3 -0.271667,0.595 -0.415,0.885 -0.143333,0.290667 -0.292,0.576667 -0.446,0.858 -0.153333,0.28 -0.312,0.555333 -0.476,0.826 -0.164,0.270667 -0.333,0.535333 -0.507,0.794 -0.174,0.258667 -0.352,0.511667 -0.534,0.759 -0.182667,0.246667 -0.369667,0.487667 -0.561,0.723 -0.191333,0.234667 -0.387,0.462667 -0.587,0.684 -0.2,0.221333 -0.403333,0.436333 -0.61,0.645 -0.206667,0.208667 -0.418,0.41 -0.634,0.604 -0.216,0.194 -0.434333,0.380667 -0.655,0.56 -0.220667,0.179333 -0.445333,0.351667 -0.674,0.517 -0.228667,0.165333 -0.459333,0.322667 -0.692,0.472 -0.232667,0.149333 -0.468667,0.291 -0.708,0.425 -0.239333,0.134 -0.480333,0.259667 -0.723,0.377 -0.242667,0.117333 -0.488,0.227 -0.736,0.329 -0.246667,0.101333 -0.495333,0.194667 -0.746,0.28 -0.250667,0.08467 -0.502667,0.161 -0.756,0.229 -0.253333,0.068 -0.508,0.128 -0.764,0.18 -0.256,0.052 -0.512333,0.09433 -0.769,0.127 -0.256667,0.03267 -0.514,0.05867 -0.772,0.078 -0.258,0.01933 -0.516333,0.02767 -0.775,0.025 -0.258667,-0.0027 -0.517,-0.011 -0.775,-0.025 -0.258,-0.014 -0.515333,-0.04 -0.772,-0.078 -0.256667,-0.038 -0.513333,-0.08067 -0.77,-0.128 -0.256667,-0.04733 -0.511,-0.107333 -0.763,-0.18 -0.253333,-0.06733 -0.505333,-0.143667 -0.756,-0.229 -0.250667,-0.08467 -0.499333,-0.178 -0.746,-0.28 -0.247333,-0.101333 -0.492667,-0.210667 -0.736,-0.328 -0.243333,-0.117333 -0.484333,-0.243 -0.723,-0.377 -0.238667,-0.134 -0.474667,-0.275667 -0.708,-0.425 -0.233333,-0.149333 -0.464,-0.306667 -0.692,-0.472 -0.228,-0.165333 -0.452667,-0.337333 -0.674,-0.516 -0.221333,-0.178667 -0.439667,-0.365667 -0.655,-0.561 -0.215333,-0.195333 -0.426667,-0.396667 -0.634,-0.604 -0.207333,-0.207333 -0.410667,-0.422333 -0.61,-0.645 -0.2,-0.221333 -0.395667,-0.449333 -0.587,-0.684 -0.191333,-0.234667 -0.378333,-0.475667 -0.561,-0.723 -0.182667,-0.247333 -0.360667,-0.500667 -0.534,-0.76 -0.173333,-0.259333 -0.342333,-0.523667 -0.507,-0.793 -0.163333,-0.27 -0.322,-0.545333 -0.476,-0.826 -0.154,-0.281333 -0.302667,-0.567333 -0.446,-0.858 -0.144,-0.29 -0.282333,-0.585 -0.415,-0.885 -0.133333,-0.3 -0.260667,-0.604 -0.382,-0.912 -0.121333,-0.308667 -0.237333,-0.621 -0.348,-0.937 -0.110667,-0.316 -0.215333,-0.635333 -0.314,-0.958 -0.09867,-0.322667 -0.191667,-0.648667 -0.279,-0.978 -0.08733,-0.329333 -0.168333,-0.661 -0.243,-0.995 -0.07467,-0.334667 -0.143667,-0.671333 -0.207,-1.01 -0.06267,-0.34 -0.119333,-0.681 -0.17,-1.023 -0.05,-0.343333 -0.094,-0.687667 -0.132,-1.033 -0.038,-0.346 -0.06967,-0.692667 -0.095,-1.04 -0.02533,-0.348 -0.04433,-0.696667 -0.057,-1.046 -0.01267,-0.349333 -0.019,-0.698667 -0.019,-1.048 0,-0.349333 0.0067,-0.698667 0.02,-1.048 0.012,-0.348667 0.03067,-0.697 0.056,-1.045 0.02533,-0.348 0.057,-0.694667 0.095,-1.04 0.038,-0.346667 0.08233,-0.691 0.133,-1.033 0.05,-0.343333 0.106667,-0.684333 0.17,-1.023 0.06267,-0.339333 0.131333,-0.676 0.206,-1.01 0.07533,-0.334667 0.156333,-0.666667 0.243,-0.996 0.08667,-0.329333 0.179667,-0.655333 0.279,-0.978 l 1.588119,-2.819208 c -0.09883,0.329444 -0.197666,0.658888 -0.296499,0.988332 0,0.164722 0.03995,0.334362 0,0.494166 -0.02881,0.115236 -0.144545,0.190257 -0.197667,0.2965 -0.225538,0.451076 7.017159,8.800705 11.761154,2.668497"
     id="path1"
     sodipodi:nodetypes="ccsssscccssccssssssssccsssssssscccssssssscssscccccssscccccsscsccccscccssc" transform="translate(-0.44 -5.157)" />
  <path
     fill="none"
     stroke="#cfc295"
     stroke-linejoin="round"
     stroke-width="4.286"
     d="m 70.766,48.905 c -0.208352,7.176289 -3.280205,14.759603 -9.600629,18.629493 -5.131483,3.161676 -12.35503,1.577305 -16.053534,-3.072281 -5.539143,-6.154784 -6.963891,-15.15575 -5.159928,-23.060012 0.724018,-1.369316 0.530262,-4.974417 2.507181,-4.554926 1.625072,1.913119 2.616417,4.312481 3.296616,6.673133 1.111977,2.480075 3.640189,0.836148 4.517864,-0.859301 0.929746,-1.304762 2.909605,-3.859225 4.391278,-1.956936 0.800363,2.003907 1.460693,4.045462 2.619703,5.898758 0.868498,1.787512 1.82894,4.790429 4.447668,3.574433 2.136873,-1.047068 4.202439,-2.200146 6.356213,-3.222111 1.481078,-0.769345 2.7763,0.417759 2.677568,1.94975 z"
     id="path2" transform="translate(-0.44 -5.157)" />
  <path
     fill="none"
     stroke="#000"
     stroke-linecap="round"
     stroke-linejoin="round"
     stroke-width="2.4"
     d="M38.662 86.716V72.853h9.36v2.623h-6.24v2.72h5.537v2.558h-5.537v3.34h6.699v2.622zm14.458-5.6q0 2.5 2.022 2.5.459 0 .86-.118.4-.122.678-.283v-4.761q-.22-.04-.523-.068-.297-.03-.698-.03-1.181 0-1.762.782-.577.776-.577 1.977m6.539 4.281q0 2.579-1.31 3.829-1.308 1.25-4.047 1.25-.962 0-1.924-.171-.957-.171-1.777-.45l.517-2.5q.704.279 1.47.44.772.16 1.753.16 1.28 0 1.807-.56.532-.557.532-1.441v-.376q-.478.22-.991.332-.508.108-1.109.108-2.182 0-3.344-1.29-1.158-1.293-1.158-3.613 0-1.157.362-2.11.361-.951 1.05-1.63.688-.679 1.689-1.05t2.26-.371q.543 0 1.11.054.57.049 1.127.132.562.078 1.07.19.512.107.913.225zM65 81.115q0 2.5 2.022 2.5.459 0 .86-.117.4-.122.678-.283v-4.761q-.22-.04-.523-.068-.297-.03-.698-.03-1.181 0-1.762.782-.577.776-.577 1.977m6.538 4.282q0 2.579-1.308 3.829t-4.048 1.25q-.962 0-1.924-.171-.957-.171-1.777-.45l.518-2.5q.703.279 1.47.44.77.16 1.752.16 1.28 0 1.807-.56.532-.557.532-1.441v-.376q-.478.22-.991.332-.508.108-1.109.108-2.182 0-3.344-1.29-1.158-1.293-1.158-3.613 0-1.157.362-2.11.361-.951 1.05-1.63.688-.679 1.689-1.05t2.26-.371q.543 0 1.11.054.57.049 1.127.132.562.078 1.07.19.512.107.912.225z"
     id="path3" />
  <path
     fill="#fff"
     d="M38.662 86.716V72.853h9.36v2.623h-6.24v2.72h5.537v2.558h-5.537v3.34h6.699v2.622zm14.458-5.6q0 2.5 2.022 2.5.459 0 .86-.118.4-.122.678-.283v-4.761q-.22-.04-.523-.068-.297-.03-.698-.03-1.181 0-1.762.782-.577.776-.577 1.977m6.539 4.281q0 2.579-1.31 3.829-1.308 1.25-4.047 1.25-.962 0-1.924-.171-.957-.171-1.777-.45l.517-2.5q.704.279 1.47.44.772.16 1.753.16 1.28 0 1.807-.56.532-.557.532-1.441v-.376q-.478.22-.991.332-.508.108-1.109.108-2.182 0-3.344-1.29-1.158-1.293-1.158-3.613 0-1.157.362-2.11.361-.951 1.05-1.63.688-.679 1.689-1.05t2.26-.371q.543 0 1.11.054.57.049 1.127.132.562.078 1.07.19.512.107.913.225zM65 81.115q0 2.5 2.022 2.5.459 0 .86-.117.4-.122.678-.283v-4.761q-.22-.04-.523-.068-.297-.03-.698-.03-1.181 0-1.762.782-.577.776-.577 1.977m6.538 4.282q0 2.579-1.308 3.829t-4.048 1.25q-.962 0-1.924-.171-.957-.171-1.777-.45l.518-2.5q.703.279 1.47.44.77.16 1.752.16 1.28 0 1.807-.56.532-.557.532-1.441v-.376q-.478.22-.991.332-.508.108-1.109.108-2.182 0-3.344-1.29-1.158-1.293-1.158-3.613 0-1.157.362-2.11.361-.951 1.05-1.63.688-.679 1.689-1.05t2.26-.371q.543 0 1.11.054.57.049 1.127.132.562.078 1.07.19.512.107.912.225z"
     id="path4" />
  <path
     style="fill:#000000"
     d="m 50.997943,43.585451 2.76733,-1.482498"
     id="path5" transform="translate(-0.44 -5.157)" />
</svg>
