<svg xmlns="http://www.w3.org/2000/svg" viewBox="0 0 110 110"><path fill-opacity=".2" d="M76.429 47.857q0 .526-.026 1.052-.026.525-.078 1.048-.051.524-.128 1.044t-.18 1.037-.23 1.026-.281 1.013-.33 1-.379.98-.426.962-.473.94q-.248.463-.518.915-.27.45-.563.888t-.605.86q-.314.423-.647.83-.334.406-.687.796t-.726.761-.761.726-.797.687-.829.647q-.423.313-.86.605-.437.293-.888.563-.452.27-.916.518t-.94.473-.96.427q-.487.2-.982.378-.495.177-.999.33-.503.153-1.013.28t-1.026.231-1.037.18-1.044.128-1.049.078-1.051.026-1.051-.026-1.05-.078-1.043-.128-1.037-.18-1.026-.23-1.013-.281-1-.33q-.494-.177-.98-.378-.486-.202-.962-.427-.475-.225-.94-.473-.463-.248-.915-.518-.45-.27-.888-.563-.437-.292-.86-.605-.423-.314-.83-.647-.406-.334-.796-.687t-.761-.726-.726-.761-.687-.797-.647-.829q-.313-.422-.605-.86-.292-.437-.563-.888-.27-.452-.518-.916-.248-.463-.473-.939t-.426-.962-.379-.98-.33-1-.28-1.013q-.128-.51-.23-1.026T33.803 51t-.13-1.044-.077-1.048-.026-1.052.026-1.051.078-1.05.128-1.043q.078-.52.18-1.036.103-.516.23-1.027.128-.51.281-1.013.153-.504.33-.999t.379-.981q.2-.486.426-.962.225-.475.473-.94.248-.463.518-.914.27-.452.563-.889t.605-.86q.314-.422.647-.829.334-.407.687-.796t.726-.762.761-.725q.39-.354.797-.687.406-.334.829-.647.423-.314.86-.606t.888-.563.916-.518.94-.473.96-.426q.487-.202.982-.379t.999-.33q.503-.152 1.013-.28t1.026-.23q.516-.103 1.037-.18.52-.078 1.044-.13.523-.05 1.049-.077.525-.025 1.051-.025t1.051.025q.526.026 1.05.078.523.051 1.043.128t1.037.18 1.026.23 1.013.281 1 .33q.494.177.98.379.486.2.962.426.475.225.94.473.463.248.915.518.45.27.888.563.437.292.86.606.423.313.83.647.406.333.796.687.39.353.761.725.372.372.726.762.353.39.687.796.333.407.647.83.313.422.605.859t.563.889.518.915.473.94.426.96.379.982.33.999q.153.503.28 1.013t.23 1.027.18 1.036q.078.52.13 1.044.05.523.077 1.049t.026 1.051"/><text x="55" y="87" text-anchor="middle" font-family="Trebuchet MS,Segoe UI,sans-serif" font-size="11.2" font-weight="700" stroke="#333946" stroke-width="2.7" stroke-linejoin="round">Nullification</text><text x="55" y="87" text-anchor="middle" font-family="Trebuchet MS,Segoe UI,sans-serif" font-size="11.2" font-weight="700" fill="#f8fbff">Nullification</text></svg>
