<?xml version="1.0" encoding="UTF-8" standalone="no"?>
<!-- Created with Inkscape (http://www.inkscape.org/) -->

<svg
   version="1.1"
   id="svg1"
   width="256"
   height="256"
   viewBox="0 0 256 256"
   sodipodi:docname="quick_backpack.svg"
   inkscape:version="1.4.3 (0d15f75, 2025-12-25)"
   xmlns:inkscape="http://www.inkscape.org/namespaces/inkscape"
   xmlns:sodipodi="http://sodipodi.sourceforge.net/DTD/sodipodi-0.dtd"
   xmlns="http://www.w3.org/2000/svg"
   xmlns:svg="http://www.w3.org/2000/svg">
  <defs
     id="defs1">
    <inkscape:path-effect
       effect="bspline"
       id="path-effect12"
       is_visible="true"
       lpeversion="1.3"
       weight="33.333333"
       steps="2"
       helper_size="0"
       apply_no_weight="true"
       apply_with_weight="true"
       only_selected="false"
       uniform="false" />
    <inkscape:path-effect
       effect="bspline"
       id="path-effect11"
       is_visible="true"
       lpeversion="1.3"
       weight="33.333333"
       steps="2"
       helper_size="0"
       apply_no_weight="true"
       apply_with_weight="true"
       only_selected="false"
       uniform="false" />
    <inkscape:path-effect
       effect="bspline"
       id="path-effect10"
       is_visible="true"
       lpeversion="1.3"
       weight="33.333333"
       steps="2"
       helper_size="0"
       apply_no_weight="true"
       apply_with_weight="true"
       only_selected="false"
       uniform="false" />
    <inkscape:path-effect
       effect="bspline"
       id="path-effect9"
       is_visible="true"
       lpeversion="1.3"
       weight="33.333333"
       steps="2"
       helper_size="0"
       apply_no_weight="true"
       apply_with_weight="true"
       only_selected="false"
       uniform="false" />
    <inkscape:path-effect
       effect="bspline"
       id="path-effect8"
       is_visible="true"
       lpeversion="1.3"
       weight="33.333333"
       steps="2"
       helper_size="0"
       apply_no_weight="true"
       apply_with_weight="true"
       only_selected="false"
       uniform="false" />
    <inkscape:path-effect
       effect="bspline"
       id="path-effect7"
       is_visible="true"
       lpeversion="1.3"
       weight="33.333333"
       steps="2"
       helper_size="0"
       apply_no_weight="true"
       apply_with_weight="true"
       only_selected="false"
       uniform="false" />
    <inkscape:path-effect
       effect="bspline"
       id="path-effect6"
       is_visible="true"
       lpeversion="1.3"
       weight="33.333333"
       steps="2"
       helper_size="0"
       apply_no_weight="true"
       apply_with_weight="true"
       only_selected="false"
       uniform="false" />
    <inkscape:path-effect
       effect="bspline"
       id="path-effect5"
       is_visible="true"
       lpeversion="1.3"
       weight="33.333333"
       steps="2"
       helper_size="0"
       apply_no_weight="true"
       apply_with_weight="true"
       only_selected="false"
       uniform="false" />
    <inkscape:path-effect
       effect="bspline"
       id="path-effect4"
       is_visible="true"
       lpeversion="1.3"
       weight="33.333333"
       steps="2"
       helper_size="0"
       apply_no_weight="true"
       apply_with_weight="true"
       only_selected="false"
       uniform="false" />
    <inkscape:path-effect
       effect="bspline"
       id="path-effect3"
       is_visible="true"
       lpeversion="1.3"
       weight="33.333333"
       steps="2"
       helper_size="0"
       apply_no_weight="true"
       apply_with_weight="true"
       only_selected="false"
       uniform="false" />
    <inkscape:path-effect
       effect="bspline"
       id="path-effect2"
       is_visible="true"
       lpeversion="1.3"
       weight="33.333333"
       steps="2"
       helper_size="0"
       apply_no_weight="true"
       apply_with_weight="true"
       only_selected="false"
       uniform="false" />
    <inkscape:path-effect
       effect="bspline"
       id="path-effect1"
       is_visible="true"
       lpeversion="1.3"
       weight="33.333333"
       steps="2"
       helper_size="0"
       apply_no_weight="true"
       apply_with_weight="true"
       only_selected="false"
       uniform="false" />
  </defs>
  <sodipodi:namedview
     id="namedview1"
     pagecolor="#505050"
     bordercolor="#ffffff"
     borderopacity="1"
     inkscape:showpageshadow="0"
     inkscape:pageopacity="0"
     inkscape:pagecheckerboard="1"
     inkscape:deskcolor="#505050"
     inkscape:zoom="1.5371094"
     inkscape:cx="-113.52478"
     inkscape:cy="119.37992"
     inkscape:window-width="1920"
     inkscape:window-height="1001"
     inkscape:window-x="-9"
     inkscape:window-y="-9"
     inkscape:window-maximized="1"
     inkscape:current-layer="g1" />
  <g
     inkscape:groupmode="layer"
     inkscape:label="Image"
     id="g1">
    <path
       style="fill:#ffffff"
       d="m 179.39008,54.972834 c -0.8242,0.03833 -1.09255,0.191676 -3.25854,2.319327 -2.16598,2.12765 -6.22944,6.229445 -9.21962,11.308936 -2.99017,5.079491 -4.9069,11.13635 -4.44684,14.567368 0.46005,3.431017 3.2968,4.236041 6.68952,2.319231 3.39271,-1.916809 7.34117,-6.55529 12.55484,-10.254675 5.21366,-3.699384 11.6922,-6.459473 13.66645,-9.008795 1.97424,-2.549322 -0.55584,-4.887729 -3.37352,-6.708669 -2.81767,-1.82094 -5.92277,-3.124315 -8.1654,-3.814352 -2.24263,-0.690036 -3.62268,-0.766706 -4.44689,-0.728371 z"
       id="path4"
       inkscape:path-effect="#path-effect4"
       inkscape:original-d="m 178.83422,54.857829 c -0.26834,0.153342 -0.53669,0.306683 -0.80504,0.460024 -4.06362,4.10196 -8.12708,8.203756 -12.19063,12.305635 -1.9168,6.0571 -3.83353,12.113958 -5.75029,18.170937 2.83687,0.805057 5.67362,1.610083 8.51044,2.415124 3.94861,-4.638665 7.89707,-9.277145 11.84561,-13.915717 6.47879,-2.760198 12.95733,-5.520285 19.436,-8.280427 -2.53018,-2.338501 -5.06026,-4.676908 -7.59039,-7.015362 -3.10522,-1.303427 -6.21032,-2.606801 -9.31548,-3.910202 -1.3801,-0.07667 -2.76015,-0.153341 -4.14022,-0.230012 z"
       transform="translate(-24.721729,5.8551459)" />
    <path
       style="fill:#ffffff"
       d="m 201.03037,77.839848 c 0.57503,2.510963 0.80504,6.382829 -5.07955,9.775533 -5.88459,3.392705 -17.8833,6.30613 -18.45822,3.795089 -0.57493,-2.511041 10.27375,-10.446294 16.15823,-13.838957 5.88448,-3.392663 6.80451,-2.242628 7.37954,0.268335 z"
       id="path5"
       inkscape:path-effect="#path-effect5"
       inkscape:original-d="m 201.37539,76.478944 c 0.23001,3.871867 0.46002,7.743733 0.69003,11.6156 -11.99919,2.913541 -23.9979,5.826967 -35.99685,8.74045 10.8491,-7.935568 21.69778,-15.870818 32.54667,-23.806228 0.92007,1.150083 1.8401,2.300119 2.76015,3.450178 z"
       transform="translate(-24.721729,5.8551459)" />
    <path
       style="fill:#ffffff"
       d="m 153.26457,58.173834 c -1.61008,3.162663 -2.68347,9.066301 -2.49178,14.529133 0.19169,5.462831 1.64841,10.484655 2.70263,10.254589 1.05423,-0.230066 1.70592,-5.711905 2.14678,-9.257937 0.44085,-3.546032 0.67086,-5.156084 2.33848,-7.37956 1.66761,-2.223476 4.77271,-5.060233 5.21354,-7.187857 0.44084,-2.127623 -1.78256,-3.546 -3.9677,-4.044356 -2.18513,-0.498355 -4.33187,-0.07667 -5.94195,3.085988 z"
       id="path6"
       inkscape:path-effect="#path-effect6"
       inkscape:original-d="m 152.72788,55.432859 c -1.07339,5.903638 -2.14678,11.807276 -3.22017,17.710913 1.45677,5.022027 2.91348,10.043852 4.37023,15.065777 0.65171,-5.482059 1.3034,-10.963898 1.9551,-16.445848 0.23001,-1.610115 0.46002,-3.220166 0.69003,-4.830249 3.10522,-2.83687 6.21032,-5.673626 9.31548,-8.510439 -2.22349,-1.418435 -4.44689,-2.836813 -6.67034,-4.255219 -2.14682,0.421697 -4.29356,0.843377 -6.44033,1.265065 z"
       transform="translate(-24.721729,5.8551459)" />
    <path
       style="fill:#ffffff"
       d="m 127.42657,71.418683 c -0.0767,0.268356 -0.15334,0.536695 -0.23001,0.805042"
       id="path7"
       inkscape:path-effect="#path-effect7"
       inkscape:original-d="m 127.42657,71.418683 c -0.0767,0.268348 -0.15334,0.536695 -0.23001,0.805042"
       transform="translate(-24.721729,5.8551459)" />
    <path
       style="fill:#ffffff"
       d="m 126.73654,73.48879 c 1.3034,3.641855 2.6068,7.283709 3.9102,10.925564"
       id="path8"
       inkscape:path-effect="#path-effect8"
       inkscape:original-d="m 126.73654,73.48879 c 1.3034,3.641855 2.6068,7.283709 3.9102,10.925564"
       transform="translate(-24.721729,5.8551459)" />
    <path
       style="fill:#ffffff"
       d="m 127.19656,73.757137 c -0.57503,1.916766 -0.57503,4.561902 2.53019,7.590427 3.10523,3.028525 9.31542,6.440297 12.17139,7.034472 2.85598,0.594175 2.35763,-1.629228 0.67085,-4.159386 -1.68678,-2.530158 -4.56187,-5.366914 -6.84284,-7.877901 -2.28097,-2.510986 -3.96769,-4.696055 -5.3861,-5.194402 -1.41842,-0.498347 -2.56846,0.690025 -3.14349,2.60679 z"
       id="path9"
       inkscape:path-effect="#path-effect9"
       inkscape:original-d="m 126.62153,73.028766 c 0,2.645137 0,5.290273 0,7.93541 6.21045,3.411911 12.42064,6.823685 18.63096,10.235528 -0.49837,-2.223493 -0.99672,-4.446896 -1.49508,-6.670344 -2.8752,-2.83687 -5.75029,-5.673626 -8.62544,-8.510439 -1.68679,-2.185157 -3.37351,-4.370226 -5.06026,-6.555338 -1.15008,1.188418 -2.30012,2.376789 -3.45018,3.565183 z"
       transform="translate(-24.721729,5.8551459)" />
    <path
       style="fill:#ffffff"
       d="m 121.06291,89.934637 c -2.41512,0.498358 -4.63857,1.111724 -4.88773,2.932681 -0.24917,1.820957 1.47589,4.849389 3.60353,5.175216 2.12763,0.325827 4.65771,-2.050916 8.29961,-2.875118 3.6419,-0.824203 8.39539,-0.09584 10.13963,-0.325869 1.74424,-0.230025 0.4792,-1.418397 -1.6101,-2.606802 -2.0893,-1.188406 -5.00273,-2.376778 -7.7629,-2.779295 -2.76017,-0.402516 -5.36691,-0.01917 -7.78204,0.479187 z"
       id="path10"
       inkscape:path-effect="#path-effect10"
       inkscape:original-d="m 120.87123,89.819632 c -2.22344,0.613365 -4.44689,1.22673 -6.67034,1.840095 1.72512,3.02855 3.45018,6.056979 5.17527,9.085473 2.53018,-2.376841 5.06026,-4.753583 7.59039,-7.130372 4.75367,0.728386 9.50716,1.456742 14.26073,2.185113 -1.26509,-1.188418 -2.53013,-2.376789 -3.79519,-3.565184 -2.91354,-1.188418 -5.82697,-2.376789 -8.74045,-3.565184 -2.60686,0.383361 -5.2136,0.766706 -7.82041,1.150059 z"
       transform="translate(-24.721729,5.8551459)" />
    <path
       style="fill:#ffffff"
       d="m 154.87466,91.928075 c -3.71853,-0.153341 -7.5904,0.766707 -8.93212,1.974282 -1.34173,1.207575 -0.15335,2.702627 2.41515,3.028468 2.56851,0.32584 6.51696,-0.517518 9.64131,0.479229 3.12436,0.996747 5.42443,3.833506 7.2262,5.443586 1.80177,1.61009 3.10515,1.99344 3.10514,0.40248 -2e-5,-1.59095 -1.30339,-5.15606 -3.73772,-7.55203 -2.43433,-2.39597 -5.99944,-3.622675 -9.71796,-3.776015 z"
       id="path11"
       inkscape:path-effect="#path-effect11"
       inkscape:original-d="m 155.028,90.854686 c -3.87187,0.920047 -7.74374,1.840095 -11.6156,2.760142 1.18841,1.495107 2.37679,2.990154 3.56518,4.485232 3.94862,-0.843394 7.89707,-1.686754 11.84561,-2.530131 2.30017,2.83687 4.60024,5.673631 6.90036,8.510441 1.30342,0.38336 2.6068,0.7667 3.9102,1.15006 -1.30343,-3.56526 -2.6068,-7.13037 -3.9102,-10.695554 -3.56526,-1.226755 -7.13037,-2.45346 -10.69555,-3.68019 z"
       transform="translate(-24.721729,5.8551459)" />
    <path
       style="fill:#ffffff"
       d="m 139.36802,107.24303 c -9.94801,1.70592 -21.41027,7.49456 -29.67158,16.98268 -8.26131,9.48812 -13.321469,22.6752 -16.694993,35.57516 -3.373525,12.89996 -5.060244,25.51202 13.072743,33.19828 18.13298,7.68626 56.08417,10.44635 71.57157,-0.28779 15.48739,-10.73413 8.51051,-34.96156 2.856,-50.94746 -5.6545,-15.9859 -9.9863,-23.72948 -16.36922,-28.78976 -6.38291,-5.06029 -14.81651,-7.43703 -24.76452,-5.73111 z"
       id="path12"
       inkscape:path-effect="#path-effect12"
       inkscape:original-d="m 140.88227,103.16032 c -11.46226,5.78863 -22.92452,11.57726 -34.38678,17.3659 -5.06036,13.18761 -10.120519,26.37469 -15.18078,39.56204 -1.686788,12.61257 -3.373508,25.22463 -5.060261,37.83695 37.952721,2.7602 75.903911,5.52028 113.855871,8.28043 -6.97717,-24.22841 -13.95405,-48.45584 -20.93108,-72.68375 -4.33198,-7.74389 -8.66378,-15.48747 -12.99567,-23.2312 -8.43394,-2.37684 -16.86754,-4.75358 -25.3013,-7.13037 z"
       transform="translate(-25.641779,2.1749559)" />
  </g>
</svg>
