<?xml version="1.0" encoding="UTF-8" standalone="no"?>
<!-- Created with Inkscape (http://www.inkscape.org/) -->

<svg
   width="210mm"
   height="297mm"
   viewBox="0 0 210 297"
   version="1.1"
   id="svg1"
   inkscape:version="1.4.3 (0d15f75, 2025-12-25)"
   sodipodi:docname="reload_talent.svg"
   xmlns:inkscape="http://www.inkscape.org/namespaces/inkscape"
   xmlns:sodipodi="http://sodipodi.sourceforge.net/DTD/sodipodi-0.dtd"
   xmlns="http://www.w3.org/2000/svg"
   xmlns:svg="http://www.w3.org/2000/svg">
  <sodipodi:namedview
     id="namedview1"
     pagecolor="#505050"
     bordercolor="#ffffff"
     borderopacity="1"
     inkscape:showpageshadow="0"
     inkscape:pageopacity="0"
     inkscape:pagecheckerboard="1"
     inkscape:deskcolor="#505050"
     inkscape:document-units="mm"
     inkscape:zoom="0.5"
     inkscape:cx="317"
     inkscape:cy="551"
     inkscape:window-width="1920"
     inkscape:window-height="1001"
     inkscape:window-x="-9"
     inkscape:window-y="-9"
     inkscape:window-maximized="1"
     inkscape:current-layer="layer1" />
  <defs
     id="defs1">
    <inkscape:path-effect
       effect="fillet_chamfer"
       id="path-effect14"
       is_visible="true"
       lpeversion="1"
       nodesatellites_param="F,0,0,1,0,0.42407145,0,1 @ F,0,0,1,0,0.39967354,0,1 @ F,0,0,1,0,0.25812666,0,1"
       radius="0"
       unit="px"
       method="auto"
       mode="F"
       chamfer_steps="1"
       flexible="false"
       use_knot_distance="true"
       apply_no_radius="true"
       apply_with_radius="true"
       only_selected="false"
       hide_knots="false" />
    <inkscape:path-effect
       effect="fillet_chamfer"
       id="path-effect11"
       is_visible="true"
       lpeversion="1"
       nodesatellites_param="F,0,0,1,0,0,0,1 @ F,0,0,1,0,0,0,1 @ F,0,0,1,0,0,0,1 @ F,0,0,1,0,0,0,1 @ F,0,0,1,0,0,0,1 @ F,0,0,1,0,3.1984748,0,1 @ F,0,0,1,0,3.2277434,0,1 @ F,0,0,1,0,0,0,1 @ F,0,0,1,0,0,0,1 @ F,0,0,1,0,0,0,1 @ F,0,0,1,0,0,0,1 @ F,0,0,1,0,0,0,1 @ F,0,0,1,0,0,0,1 @ F,0,0,1,0,0,0,1"
       radius="0"
       unit="px"
       method="auto"
       mode="F"
       chamfer_steps="1"
       flexible="false"
       use_knot_distance="true"
       apply_no_radius="true"
       apply_with_radius="true"
       only_selected="false"
       hide_knots="false" />
    <inkscape:path-effect
       effect="bspline"
       id="path-effect8"
       is_visible="true"
       lpeversion="1.3"
       weight="33.333333"
       steps="2"
       helper_size="0"
       apply_no_weight="true"
       apply_with_weight="true"
       only_selected="false"
       uniform="false" />
  </defs>
  <g
     inkscape:label="图层 1"
     inkscape:groupmode="layer"
     id="layer1">
    <path
       id="path11"
       style="fill:#ffffff;stroke-width:0.264583"
       d="m 108.66572,108.8285 c -9.313817,-0.34767 -18.348963,3.27282 -24.858433,9.96115 -12.373646,12.71364 -12.474423,32.91318 -0.227893,45.67938 12.246459,12.76631 32.436636,13.50875 45.658196,1.67897 l -0.007,-0.008 a 3.204246,3.204246 0 0 0 0.2527,-4.52014 l -5.32422,-5.96449 a 3.2219481,3.2219481 0 0 0 -4.55321,-0.25425 c -7.34583,6.32781 -18.36258,5.82956 -25.065137,-1.13378 -6.786633,-7.05066 -6.730874,-18.20671 0.12609,-25.22844 6.692557,-6.8532 17.535097,-7.37454 24.817607,-1.25005 l -2.50476,2.74247 a 1.0902111,1.6994777 42.327569 0 0 0.21291,2.19159 l 17.31057,0.1447 a 0.663597,1.0344495 42.327569 0 0 1.20819,-1.32292 l -1.68878,-17.38912 a 1.0274885,1.6017024 42.327569 0 0 -2.07119,-0.0176 l -2.70217,2.95899 c -5.68502,-5.05906 -12.96045,-7.98404 -20.58272,-8.26874 z" />
  </g>
</svg>
