<?xml version="1.0" encoding="UTF-8" standalone="no"?>
<svg
   viewBox="0 0 110 110"
   version="1.1"
   id="svg32"
   sodipodi:docname="dandelion_base.svg"
   inkscape:version="1.4.3 (0d15f75, 2025-12-25)"
   xmlns:inkscape="http://www.inkscape.org/namespaces/inkscape"
   xmlns:sodipodi="http://sodipodi.sourceforge.net/DTD/sodipodi-0.dtd"
   xmlns="http://www.w3.org/2000/svg"
   xmlns:svg="http://www.w3.org/2000/svg">
  <defs
     id="defs32" />
  <sodipodi:namedview
     id="namedview32"
     pagecolor="#505050"
     bordercolor="#ffffff"
     borderopacity="1"
     inkscape:showpageshadow="0"
     inkscape:pageopacity="0"
     inkscape:pagecheckerboard="1"
     inkscape:deskcolor="#505050"
     inkscape:zoom="8"
     inkscape:cx="89.1875"
     inkscape:cy="57.9375"
     inkscape:window-width="1920"
     inkscape:window-height="1001"
     inkscape:window-x="-9"
     inkscape:window-y="-9"
     inkscape:window-maximized="1"
     inkscape:current-layer="g5"
     showguides="true" />
  <clipPath
     id="a">
    <rect
       width="91.667"
       height="91.667"
       x="9.167"
       y="9.167"
       rx="4.167"
       ry="4.167"
       id="rect1" />
  </clipPath>
  <g
     clip-path="url(#a)"
     id="g32">
    <g
       id="g5"
       transform="rotate(54.05905,72.098593,59.582293)">
      <path
         fill="#cfcfcf"
         d="m 58.354928,53.097468 q 0.433457,-9.35e-4 0.866924,0.02083 0.432756,0.02102 0.864817,0.06255 0.432061,0.04295 0.860597,0.106394 0.428534,0.06345 0.854957,0.147405 0.424301,0.08465 0.845787,0.190539 0.420065,0.104476 0.835903,0.230146 0.414422,0.12567 0.823884,0.271917 0.408066,0.146181 0.807655,0.31218 0.400999,0.164587 0.794234,0.351088 0.391826,0.185073 0.774452,0.389275 0.382639,0.204178 0.753969,0.426752 0.371326,0.222589 0.732767,0.463542 0.361437,0.240963 0.709448,0.499613 0.348016,0.258639 0.684011,0.532144 0.336001,0.273496 0.656442,0.566814 0.320458,0.293298 0.628884,0.597224 0.308432,0.303921 0.597782,0.628355 0.292177,0.320192 0.567377,0.655959 0.27451,0.335045 0.532761,0.68353 0.25973,0.348441 0.500272,0.708982 0.240583,0.360514 0.464187,0.732355 0.223606,0.371841 0.427428,0.75359 0.203803,0.381753 0.390666,0.774817 0.186851,0.393065 0.351784,0.792508 0.164927,0.399445 0.311487,0.808793 0.146548,0.409349 0.272688,0.823632 0.126107,0.414287 0.23159,0.83499 0.105539,0.420686 0.190581,0.846325 0.08504,0.425639 0.148871,0.854117 0.06384,0.428477 0.107156,0.860505 0.04191,0.43202 0.06331,0.864761 0.02212,0.433446 0.0216,0.866903 9.35e-4,0.433455 -0.02083,0.866923 -0.02102,0.432759 -0.06255,0.864818 -0.04295,0.432061 -0.106395,0.860597 -0.06345,0.428533 -0.147405,0.854959 -0.08465,0.424302 -0.190539,0.845785 -0.104475,0.420064 -0.230145,0.8359 -0.125672,0.414426 -0.271918,0.823887 -0.146189,0.408062 -0.31218,0.807653 -0.164587,0.401002 -0.351087,0.794237 -0.185083,0.391819 -0.389277,0.774452 -0.204186,0.382633 -0.426754,0.753969 -0.222586,0.371325 -0.46354,0.732765 -0.240962,0.361438 -0.499611,0.709448 -0.25864,0.348019 -0.532145,0.684011 -0.273505,0.335995 -0.566812,0.656444 -0.293305,0.320449 -0.597225,0.628882 -0.303915,0.308439 -0.628355,0.597786 -0.320197,0.292168 -0.655949,0.567382 -0.335045,0.27451 -0.683531,0.532761 -0.34844,0.259731 -0.708981,0.500272 -0.36052,0.240575 -0.732364,0.464181 -0.371835,0.223614 -0.753592,0.427421 -0.381744,0.20381 -0.774813,0.390665 -0.393073,0.186843 -0.792513,0.351786 -0.39944,0.164936 -0.808788,0.311494 -0.408644,0.147256 -0.82363,0.272687 -0.414292,0.126109 -0.834988,0.2316 -0.420686,0.105539 -0.846327,0.190582 -0.425635,0.08506 -0.854118,0.148872 -0.428475,0.06384 -0.860499,0.107156 -0.432023,0.04191 -0.864768,0.06331 -0.433445,0.02211 -0.866901,0.0216 -0.433456,9.35e-4 -0.866922,-0.02083 -0.432759,-0.02102 -0.864819,-0.06255 -0.432062,-0.04295 -0.860596,-0.106393 -0.428532,-0.06345 -0.854959,-0.147404 -0.424302,-0.08466 -0.845786,-0.19054 -0.420063,-0.104478 -0.835902,-0.230148 -0.414425,-0.125672 -0.823885,-0.271917 -0.408065,-0.146191 -0.807651,-0.312191 -0.401002,-0.164586 -0.794235,-0.351087 -0.391821,-0.185081 -0.774453,-0.389279 -0.38263,-0.204194 -0.753969,-0.42675 -0.371325,-0.222587 -0.732765,-0.46354 -0.361444,-0.240955 -0.709449,-0.499611 -0.348016,-0.258641 -0.684006,-0.532153 -0.335997,-0.273496 -0.656442,-0.566814 -0.320456,-0.293297 -0.628881,-0.597225 -0.308439,-0.303914 -0.597781,-0.628355 -0.292183,-0.320182 -0.567391,-0.655945 -0.27451,-0.335044 -0.532747,-0.683544 -0.259728,-0.348438 -0.500272,-0.708983 -0.240574,-0.360518 -0.46418,-0.732361 -0.223603,-0.371837 -0.427418,-0.75359 -0.203805,-0.381755 -0.390668,-0.774814 -0.186847,-0.393077 -0.351785,-0.792511 -0.164938,-0.399441 -0.311488,-0.808793 -0.147255,-0.408642 -0.272685,-0.823632 -0.12611,-0.414288 -0.231593,-0.834989 -0.105539,-0.420687 -0.19058,-0.846323 -0.08505,-0.425645 -0.148872,-0.854123 -0.06384,-0.428475 -0.107156,-0.8605 -0.04191,-0.432024 -0.06331,-0.864763 -0.02212,-0.433449 -0.0216,-0.866904 -9.35e-4,-0.433454 0.02083,-0.866924 0.02102,-0.432756 0.06255,-0.864817 0.04295,-0.432117 0.106397,-0.860655 0.06345,-0.428533 0.147406,-0.854958 0.08465,-0.4243 0.190538,-0.845783 0.104477,-0.420066 0.230146,-0.835902 0.125671,-0.414424 0.271916,-0.823883 0.146192,-0.408068 0.312191,-0.807655 0.164587,-0.400998 0.351088,-0.794235 0.185072,-0.391825 0.389273,-0.774451 0.204186,-0.382635 0.426755,-0.753972 0.222587,-0.371324 0.463538,-0.732763 0.240959,-0.361446 0.499611,-0.709447 0.258642,-0.348017 0.532146,-0.684015 0.273496,-0.336 0.566813,-0.656439 0.293302,-0.320461 0.597226,-0.628886 0.303926,-0.308435 0.628356,-0.597782 0.320191,-0.292176 0.655939,-0.5674 0.335043,-0.274509 0.683538,-0.532753 0.348439,-0.25973 0.708981,-0.500271 0.360525,-0.240566 0.732356,-0.464189 0.371839,-0.223604 0.753585,-0.427427 0.381754,-0.203804 0.774816,-0.390667 0.393068,-0.186854 0.792512,-0.351787 0.399442,-0.164925 0.80879,-0.311485 0.409352,-0.14655 0.823633,-0.272687 0.414289,-0.126109 0.834992,-0.231581 0.420683,-0.105539 0.846327,-0.190582 0.425639,-0.08506 0.854118,-0.148868 0.428475,-0.06384 0.860503,-0.107156 0.432023,-0.04332 0.864761,-0.06331 0.433447,-0.02212 0.866902,-0.0216"
         id="path11" />
      <path
         fill="#ffffff"
         d="m 58.355814,55.097166 q 0.384666,-1.81e-4 0.768633,0.01875 0.384674,0.01822 0.766528,0.05623 0.382562,0.0373 0.763715,0.09301 0.381154,0.05711 0.757372,0.131895 0.377626,0.07479 0.751024,0.167951 0.373392,0.09318 0.741137,0.204736 0.367725,0.111613 0.729877,0.241392 0.362104,0.129933 0.717838,0.276164 0.355736,0.146221 0.702999,0.310821 0.347262,0.164599 0.686752,0.345471 0.339485,0.180882 0.669083,0.378731 0.329575,0.197888 0.650012,0.410543 0.32041,0.2127 0.628815,0.443078 0.30838,0.230408 0.606205,0.472779 0.297804,0.242401 0.582874,0.501789 0.285076,0.259388 0.557436,0.530082 0.272355,0.270705 0.529875,0.557671 0.258931,0.284138 0.50301,0.581727 0.244081,0.29617 0.473317,0.605783 0.229234,0.308206 0.442943,0.627708 0.214389,0.320229 0.411116,0.64965 0.198845,0.330128 0.380011,0.669462 0.181174,0.339328 0.34608,0.686449 0.16491,0.347114 0.311433,0.702727 0.147939,0.355611 0.277501,0.716882 0.129563,0.362688 0.24159,0.730291 0.111866,0.369063 0.20539,0.742369 0.09421,0.372605 0.169331,0.74875 0.0751,0.377565 0.131857,0.757964 0.05603,0.381106 0.09367,0.763633 0.03764,0.38253 0.05691,0.766477 0.01926,0.383953 0.01944,0.768617 1.81e-4,0.384668 -0.01874,0.768636 -0.01893,0.383964 -0.05623,0.766526 -0.03731,0.38256 -0.09301,0.763717 -0.05711,0.381156 -0.131895,0.757371 -0.0748,0.377623 -0.16795,0.751025 -0.09318,0.37339 -0.204738,0.741138 -0.111613,0.367726 -0.241392,0.729876 -0.129931,0.362104 -0.276162,0.717834 -0.146221,0.355736 -0.310822,0.703002 -0.1646,0.347261 -0.34547,0.686755 -0.180873,0.339493 -0.378731,0.669079 -0.197887,0.329577 -0.410543,0.650013 -0.2127,0.320411 -0.443085,0.628808 -0.230408,0.30838 -0.472794,0.606192 -0.242403,0.297805 -0.501791,0.582879 -0.25938,0.285081 -0.530081,0.557435 -0.270704,0.272355 -0.55767,0.529874 -0.284138,0.25893 -0.581727,0.50301 -0.296163,0.244088 -0.605784,0.473318 -0.308203,0.229231 -0.627706,0.44294 -0.32022,0.214397 -0.649648,0.411116 -0.330135,0.198837 -0.669463,0.380012 -0.339324,0.181184 -0.686448,0.346081 -0.347117,0.164913 -0.702727,0.311435 -0.35561,0.147939 -0.716884,0.2775 -0.362688,0.129563 -0.730289,0.241589 -0.369067,0.111867 -0.742371,0.205391 -0.372602,0.09421 -0.748751,0.16933 -0.377565,0.0751 -0.757962,0.131857 -0.381103,0.05603 -0.763633,0.09368 -0.38253,0.03764 -0.766477,0.05691 -0.383954,0.01926 -0.768617,0.01944 -0.384665,1.81e-4 -0.768634,-0.01874 -0.383966,-0.01893 -0.766527,-0.05623 -0.382564,-0.03729 -0.763718,-0.093 -0.381153,-0.05711 -0.75737,-0.131894 -0.377624,-0.07479 -0.751021,-0.16796 -0.373391,-0.09318 -0.741136,-0.204737 -0.367728,-0.111614 -0.729879,-0.241393 -0.362102,-0.129931 -0.717836,-0.276162 -0.355737,-0.146221 -0.703,-0.310822 -0.34726,-0.164619 -0.686752,-0.345489 -0.339486,-0.180882 -0.66908,-0.378732 -0.329581,-0.19788 -0.65001,-0.410544 -0.320409,-0.212708 -0.628813,-0.443083 -0.308379,-0.23041 -0.606197,-0.472788 Q 48.132217,82.636539 47.847146,82.377152 47.562065,82.117773 47.289709,81.847071 47.017355,81.576366 46.759835,81.2894 46.500906,81.005265 46.256824,80.707672 46.012745,80.411504 45.7835,80.101896 45.554267,79.793691 45.340559,79.47419 45.126171,79.153964 44.929443,78.824541 44.730597,78.494411 44.549432,78.15508 44.368255,77.815748 44.203353,77.46863 44.03844,77.121512 43.891918,76.765903 43.74398,76.410294 43.614417,76.049015 43.484855,75.68633 43.372829,75.318728 q -0.111867,-0.369064 -0.205392,-0.742369 -0.09421,-0.372602 -0.169331,-0.748751 -0.0751,-0.377564 -0.131856,-0.757961 -0.05603,-0.381105 -0.09367,-0.763632 -0.03764,-0.382531 -0.05691,-0.766481 -0.01928,-0.383984 -0.01945,-0.768653 -1.81e-4,-0.384667 0.01874,-0.768633 0.01893,-0.383968 0.05623,-0.76653 0.03729,-0.382561 0.093,-0.763717 0.05711,-0.381153 0.131894,-0.757369 0.07479,-0.377627 0.167959,-0.751021 0.09318,-0.373391 0.204737,-0.741139 0.111615,-0.367727 0.241394,-0.729877 0.129931,-0.362101 0.276162,-0.717836 0.14622,-0.355735 0.310821,-0.702999 0.1646,-0.347261 0.345468,-0.686756 0.180882,-0.339485 0.378731,-0.66908 0.197889,-0.329577 0.410547,-0.650011 0.212697,-0.320412 0.443074,-0.628814 0.230409,-0.308381 0.472796,-0.606197 0.242407,-0.297797 0.50179,-0.582875 0.25938,-0.285082 0.530081,-0.557435 0.270705,-0.272354 0.557678,-0.529867 0.284136,-0.258929 0.581726,-0.503009 0.296169,-0.244079 0.605784,-0.473318 0.308202,-0.229231 0.627705,-0.44294 0.320222,-0.214397 0.649643,-0.411123 0.330117,-0.198837 0.669451,-0.380004 0.339341,-0.181159 0.686451,-0.346082 0.347115,-0.164911 0.702727,-0.311433 0.355609,-0.147939 0.716883,-0.277501 0.362693,-0.129554 0.730291,-0.241589 0.369066,-0.111868 0.742374,-0.205392 0.372598,-0.09421 0.748746,-0.169329 0.377563,-0.07512 0.757962,-0.131858 0.381107,-0.05602 0.763634,-0.09368 0.38253,-0.03764 0.766478,-0.05691 0.383954,-0.01925 0.768616,-0.01944"
         id="path12" />
    </g>
  </g>
</svg>
