<?xml version="1.0" encoding="UTF-8" standalone="no"?>
<svg
   viewBox="0 0 110 110"
   version="1.1"
   id="svg2"
   sodipodi:docname="leafcutter_ant_egg.svg"
   inkscape:version="1.4.3 (0d15f75, 2025-12-25)"
   xmlns:inkscape="http://www.inkscape.org/namespaces/inkscape"
   xmlns:sodipodi="http://sodipodi.sourceforge.net/DTD/sodipodi-0.dtd"
   xmlns="http://www.w3.org/2000/svg"
   xmlns:svg="http://www.w3.org/2000/svg">
  <defs
     id="defs2" />
  <sodipodi:namedview
     id="namedview2"
     pagecolor="#505050"
     bordercolor="#ffffff"
     borderopacity="1"
     inkscape:showpageshadow="0"
     inkscape:pageopacity="0"
     inkscape:pagecheckerboard="1"
     inkscape:deskcolor="#505050"
     inkscape:zoom="3.5772727"
     inkscape:cx="-13.977128"
     inkscape:cy="56.048285"
     inkscape:window-width="1920"
     inkscape:window-height="1001"
     inkscape:window-x="-9"
     inkscape:window-y="-9"
     inkscape:window-maximized="1"
     inkscape:current-layer="g2" />
  <clipPath
     id="a">
    <rect
       width="91.667"
       height="91.667"
       x="9.167"
       y="9.167"
       rx="4.167"
       ry="4.167"
       id="rect1" />
  </clipPath>
  <g
     clip-path="url(#a)"
     id="g2">
    <path
       fill="#cfc295"
       d="M37.322 37.322q1.741-1.74 3.789-3.109t4.322-2.31 4.69-1.423Q52.538 30 55 30t4.877.48 4.69 1.423 4.322 2.31 3.789 3.11q1.74 1.74 3.109 3.788t2.31 4.322 1.423 4.69Q80 52.538 80 55t-.48 4.877-1.423 4.69-2.31 4.322-3.11 3.789q-1.74 1.74-3.788 3.109t-4.322 2.31-4.69 1.423Q57.462 80 55 80t-4.877-.48-4.69-1.423-4.322-2.31-3.789-3.11q-1.74-1.74-3.109-3.788t-2.31-4.322q-.942-2.275-1.423-4.69Q30 57.462 30 55t.48-4.877 1.423-4.69 2.31-4.322 3.11-3.789"
       id="path1"
       style="fill:#be9668;fill-opacity:1" />
    <path
       fill="#fff0b8"
       d="m 69.142,40.858 q 1.393,1.393 2.487,3.03 1.095,1.638 1.849,3.458 0.753,1.82 1.138,3.752 Q 75.001,53.03 75,55 q -0.001,1.97 -0.384,3.902 -0.385,1.932 -1.138,3.752 -0.754,1.82 -1.849,3.457 -1.094,1.638 -2.487,3.031 -1.393,1.393 -3.03,2.487 -1.637,1.094 -3.458,1.849 -1.821,0.755 -3.752,1.138 Q 56.971,74.999 55,75 53.029,75.001 51.098,74.616 49.167,74.231 47.346,73.478 45.525,72.725 43.889,71.629 42.253,70.533 40.858,69.142 39.463,67.751 38.371,66.112 37.276,64.474 36.522,62.654 35.769,60.834 35.384,58.902 34.999,56.97 35,55 q 10e-4,-1.97 0.384,-3.902 0.385,-1.932 1.138,-3.752 0.754,-1.82 1.849,-3.457 1.094,-1.638 2.487,-3.031 1.393,-1.393 3.03,-2.487 1.637,-1.094 3.458,-1.849 1.821,-0.755 3.752,-1.138 Q 53.029,35.001 55,35 q 1.971,-10e-4 3.902,0.384 1.931,0.385 3.752,1.138 1.821,0.753 3.457,1.849 1.636,1.096 3.031,2.487"
       id="path2"
       style="fill:#ffd593;fill-opacity:1" />
  </g>
</svg>
