<svg xmlns="http://www.w3.org/2000/svg" viewBox="0 0 110 110">
  <path fill="#be342a" d="M49.854 27.562q11.365-2.132 20.909 4.397 9.544 6.53 11.675 17.895t-4.397 20.909q-6.53 9.544-17.895 11.675t-20.909-4.397q-9.544-6.53-11.675-17.895-.965-5.146 0-10.292.022-.118.054-.234.031-.116.073-.229.04-.112.091-.221.05-.11.11-.214.059-.105.126-.204.068-.1.143-.193t.158-.18.173-.167.186-.152.197-.136.208-.12.217-.101q.111-.047.225-.084t.231-.065.236-.046.238-.026q16.144-1.11 17.254-17.254.008-.12.026-.238.018-.119.046-.236t.065-.23.084-.226.102-.217.12-.208q.063-.101.135-.197t.152-.186.167-.173.18-.158.193-.143.204-.127.214-.109.221-.091.23-.073.233-.054m1.075 5.733-.537-2.867 2.91.2q-1.46 21.215-22.674 22.673l-.2-2.91 2.867.538q-.763 4.071 0 8.142 1.686 8.99 9.236 14.155t16.54 3.479 14.155-9.236 3.479-16.54-9.236-14.155-16.54-3.479"/>
</svg>
