<svg xmlns="http://www.w3.org/2000/svg" viewBox="0 0 110 110">
  <path fill="#0e0e0e" d="M35.26 35.26q.268-.268.548-.522t.573-.494.596-.466.62-.435q.314-.21.638-.405.325-.195.659-.373.334-.179.676-.34t.691-.307.706-.272q.357-.128.719-.238t.73-.202q.366-.091.737-.165.372-.074.746-.13.374-.055.751-.092t.755-.056.756-.019.757.02q.378.018.754.055.377.037.751.092.375.056.746.13t.738.165.73.202.718.238.706.272.692.307q.342.161.676.34.333.178.658.373.325.194.64.405.314.21.618.435.304.226.596.466.293.24.573.494t.548.522.522.548.494.573.466.596.436.62.404.638.373.659.34.676.307.691.273.706.237.719.202.73.166.738q.073.37.129.745.056.374.093.751t.055.755.019.756-.019.757-.055.754-.093.751-.13.746q-.073.371-.165.738t-.202.73-.237.718-.273.706-.306.692-.34.676q-.179.333-.374.658-.194.325-.404.64-.21.314-.436.618-.225.304-.466.596-.24.293-.494.573t-.522.548-.548.522-.573.494-.596.466-.619.436-.64.404-.657.373-.676.34-.692.307-.706.273-.719.237-.729.202-.738.166-.746.129-.75.093q-.377.037-.755.055t-.757.019-.756-.019-.755-.055-.75-.093q-.375-.056-.746-.13-.372-.073-.739-.165t-.729-.202-.719-.237-.706-.273-.691-.306-.676-.34q-.334-.179-.659-.374-.324-.194-.639-.404t-.619-.436-.596-.466-.573-.494-.548-.522-.522-.548-.494-.573-.466-.596-.435-.619q-.21-.314-.405-.64-.195-.324-.373-.657-.179-.334-.34-.676t-.307-.692-.272-.706-.238-.719-.202-.729-.165-.738-.13-.746-.092-.75-.056-.755-.019-.757.02-.756q.018-.378.055-.755t.092-.75.13-.747q.074-.37.165-.738.092-.367.202-.729t.238-.719.272-.706.307-.691.34-.676.373-.659.405-.639.435-.619.466-.596.494-.573.522-.548"/>
  <path fill="#111" d="M39.385 39.385q.166-.167.34-.325t.357-.307.37-.29.385-.27q.196-.13.397-.252.202-.12.41-.232.207-.11.42-.211.212-.1.43-.19.217-.09.439-.17.221-.08.446-.148t.454-.125.459-.103.463-.08q.233-.035.467-.058t.469-.035.47-.011.47.011.47.035.466.058q.233.034.464.08.23.046.459.103.228.057.453.125.225.069.447.148.221.08.439.17.217.09.43.19.212.1.42.211.207.111.409.232t.397.252.385.27.37.29q.183.15.357.307.174.158.34.325.167.166.325.34t.307.357.29.37.27.385.252.397.232.41q.11.207.211.42.1.212.191.43.09.217.17.439.079.221.147.446t.125.454.103.459.08.463.058.467.035.469.012.47-.012.47-.035.47-.057.466-.08.464-.104.459-.125.453-.148.447-.169.439-.19.43-.212.42-.232.409-.252.397q-.13.196-.27.385t-.29.37q-.15.183-.307.357-.158.174-.324.34-.167.167-.341.325t-.356.307-.371.29-.385.27q-.195.131-.397.252t-.41.232-.42.211-.43.191-.438.17q-.222.079-.447.147t-.453.125-.46.103-.463.08-.467.058q-.234.023-.469.035-.235.011-.47.012-.235 0-.47-.012t-.47-.035-.466-.057-.463-.08q-.231-.047-.46-.104-.228-.057-.453-.125t-.446-.148-.44-.169-.43-.19-.42-.212-.409-.232-.397-.252-.385-.27-.37-.29-.357-.307-.34-.324-.325-.341-.307-.356-.29-.371-.27-.385-.252-.397-.232-.41-.211-.42-.19-.43-.17-.438-.148-.447-.125-.453-.103-.46q-.046-.23-.08-.463-.035-.232-.058-.466t-.035-.47-.011-.47.011-.47.035-.47q.023-.233.058-.466.034-.233.08-.463.046-.231.103-.46.057-.228.125-.453.069-.225.148-.446.08-.222.17-.44.09-.217.19-.43.1-.212.211-.42.111-.207.232-.409t.252-.397.27-.385.29-.37.307-.357.325-.34"/>
  <path fill="#eb4034" d="M50.392 30.428q.603-.113 1.21-.196.609-.084 1.22-.137.612-.053 1.225-.077.613-.023 1.227-.016.613.006 1.226.043t1.223.104 1.216.163 1.207.223 1.194.282 1.179.34 1.16.398q.576.213 1.14.454.565.241 1.117.51.552.268 1.09.563.538.296 1.06.617.524.321 1.03.668.507.346.995.717.49.371.96.766.47.394.92.811t.88.856q.428.439.836.898.407.46.79.938.385.478.745.975t.696 1.011q.335.514.645 1.044t.593 1.074.54 1.102.484 1.127.43 1.15.372 1.17.314 1.185q.142.597.256 1.2.113.604.196 1.212.084.608.137 1.22.053.61.077 1.224.023.613.016 1.227-.006.613-.043 1.226t-.104 1.223-.163 1.216-.223 1.207-.282 1.194q-.156.593-.34 1.179-.185.585-.398 1.16-.213.576-.454 1.14-.241.565-.51 1.117-.268.552-.563 1.09-.296.538-.617 1.06-.321.524-.668 1.03-.346.507-.717.995-.371.49-.766.96-.394.47-.811.92t-.856.88q-.439.428-.898.836-.46.407-.938.79-.478.385-.975.745t-1.011.696q-.514.335-1.044.645t-1.074.593-1.102.54-1.127.484-1.15.43-1.17.372-1.185.314q-.597.142-1.2.256-.604.113-1.212.196-.608.084-1.22.137-.61.053-1.224.077-.613.023-1.227.016-.613-.006-1.226-.043t-1.223-.104-1.216-.163-1.207-.223-1.194-.282q-.593-.156-1.179-.34-.585-.185-1.16-.398-.576-.213-1.14-.454-.565-.241-1.117-.51-.552-.268-1.09-.563-.538-.296-1.06-.617-.524-.321-1.03-.668-.507-.346-.995-.717-.49-.371-.96-.766-.47-.394-.92-.811t-.88-.856q-.428-.439-.836-.898-.407-.46-.79-.938-.385-.478-.745-.975t-.696-1.011-.645-1.044-.593-1.074-.54-1.102-.484-1.127-.43-1.15-.372-1.17-.314-1.185q-.142-.597-.256-1.2-.213-1.14-.32-2.295Q30 56.16 30 55t.107-2.314.321-2.294q18.68-1.285 19.964-19.964"/>
</svg>
