<?xml version="1.0" encoding="UTF-8" standalone="no"?>
<svg
   viewBox="0 0 110 110"
   version="1.1"
   id="svg6"
   sodipodi:docname="portal.svg"
   inkscape:version="1.4.3 (0d15f75, 2025-12-25)"
   xmlns:inkscape="http://www.inkscape.org/namespaces/inkscape"
   xmlns:sodipodi="http://sodipodi.sourceforge.net/DTD/sodipodi-0.dtd"
   xmlns="http://www.w3.org/2000/svg"
   xmlns:svg="http://www.w3.org/2000/svg">
  <defs
     id="defs6" />
  <sodipodi:namedview
     id="namedview6"
     pagecolor="#505050"
     bordercolor="#ffffff"
     borderopacity="1"
     inkscape:showpageshadow="0"
     inkscape:pageopacity="0"
     inkscape:pagecheckerboard="1"
     inkscape:deskcolor="#505050"
     inkscape:zoom="7.1545455"
     inkscape:cx="48.780178"
     inkscape:cy="64.923761"
     inkscape:window-width="1920"
     inkscape:window-height="1001"
     inkscape:window-x="-9"
     inkscape:window-y="-9"
     inkscape:window-maximized="1"
     inkscape:current-layer="g6" />
  <clipPath
     id="a">
    <rect
       width="91.667"
       height="91.667"
       x="9.167"
       y="9.167"
       rx="4.167"
       ry="4.167"
       id="rect1" />
  </clipPath>
  <g
     clip-path="url(#a)"
     id="g6">
    <path
       fill="#d5c7a6"
       d="m31.901 31.901 31.554-8.455 23.099 23.1-8.455 31.553-31.554 8.455-23.099-23.1z"
       id="path1"
       style="fill:#d6d6d6;fill-opacity:1" />
    <path
       fill="none"
       stroke="#d5c7a6"
       stroke-linejoin="round"
       stroke-width="7"
       d="m31.901 31.901 31.554-8.455 23.099 23.1-8.455 31.553-31.554 8.455-23.099-23.1z"
       id="path2"
       style="stroke:#ebebeb;stroke-opacity:1;fill:#ebebeb;fill-opacity:1" />
    <path
       fill="#bfb295"
       d="m40.15 40.15 20.285-5.434 14.85 14.849-5.436 20.284-20.284 5.435-14.85-14.849z"
       id="path3"
       style="fill:#ffffff;fill-opacity:1" />
    <path
       fill="none"
       stroke="#bfb295"
       stroke-linejoin="round"
       stroke-width="7"
       d="m40.15 40.15 20.285-5.434 14.85 14.849-5.436 20.284-20.284 5.435-14.85-14.849z"
       id="path4"
       style="stroke:#ffffff;stroke-opacity:1" />
    <path
       fill="#a99e84"
       d="m48.4 48.4 9.016-2.415 6.6 6.6L61.6 61.6l-9.016 2.415-6.6-6.6z"
       id="path5"
       style="fill:#d4d4d4;fill-opacity:1" />
    <path
       fill="none"
       stroke="#a99e84"
       stroke-linejoin="round"
       stroke-width="7"
       d="m48.4 48.4 9.016-2.415 6.6 6.6L61.6 61.6l-9.016 2.415-6.6-6.6z"
       id="path6"
       style="fill:#f0f0f0;fill-opacity:1;stroke:#f0f0f0;stroke-opacity:1" />
  </g>
</svg>
